<svg width="365" height="658" viewBox="0 0 365 658" fill="none" xmlns="http://www.w3.org/2000/svg">
<g filter="url(#filter0_d_10166_18367)">
<g clip-path="url(#clip0_10166_18367)">
<rect x="41.7109" y="14.2734" width="281" height="573.81" rx="43.9062" fill="#111827"/>
<rect width="263.438" height="556.266" transform="translate(50.4922 23.0547)" fill="#F9FAFB"/>
<rect x="50.4922" y="23.0547" width="263.438" height="26.3438" fill="#E5E7EB"/>
<rect x="68.0547" y="66.9609" width="17.5625" height="17.5625" rx="8.78125" fill="#D1D5DB"/>
<rect x="208.555" y="71.3516" width="87.8125" height="8.78125" rx="4.39062" fill="#D1D5DB"/>
<rect x="68.0547" y="110.867" width="228.312" height="140.5" rx="17.5625" fill="#E5E7EB"/>
<rect x="68.0547" y="268.93" width="109.766" height="105.375" rx="8.78125" fill="#E5E7EB"/>
<rect x="186.602" y="268.93" width="109.766" height="105.375" rx="8.78125" fill="#E5E7EB"/>
<rect x="68.0547" y="391.867" width="228.312" height="52.6875" rx="8.78125" fill="#E5E7EB"/>
<rect x="68.0547" y="462.117" width="228.312" height="52.6875" rx="8.78125" fill="#E5E7EB"/>
<rect x="68.0547" y="532.367" width="228.312" height="52.6875" rx="8.78125" fill="#E5E7EB"/>
<path d="M91.4581 176.085H93.5249L95.5149 179.844H95.6001L97.5902 176.085H99.657L96.4737 181.727V184.812H94.6413V181.727L91.4581 176.085ZM108.157 180.449C108.157 181.401 107.977 182.21 107.616 182.878C107.258 183.545 106.77 184.055 106.15 184.408C105.534 184.757 104.841 184.932 104.071 184.932C103.295 184.932 102.599 184.756 101.983 184.403C101.366 184.051 100.879 183.541 100.521 182.874C100.163 182.206 99.984 181.398 99.984 180.449C99.984 179.497 100.163 178.688 100.521 178.02C100.879 177.352 101.366 176.844 101.983 176.494C102.599 176.142 103.295 175.966 104.071 175.966C104.841 175.966 105.534 176.142 106.15 176.494C106.77 176.844 107.258 177.352 107.616 178.02C107.977 178.688 108.157 179.497 108.157 180.449ZM106.287 180.449C106.287 179.832 106.194 179.312 106.01 178.889C105.828 178.466 105.571 178.145 105.238 177.926C104.906 177.707 104.517 177.598 104.071 177.598C103.625 177.598 103.235 177.707 102.903 177.926C102.571 178.145 102.312 178.466 102.127 178.889C101.946 179.312 101.855 179.832 101.855 180.449C101.855 181.065 101.946 181.585 102.127 182.009C102.312 182.432 102.571 182.753 102.903 182.972C103.235 183.19 103.625 183.3 104.071 183.3C104.517 183.3 104.906 183.19 105.238 182.972C105.571 182.753 105.828 182.432 106.01 182.009C106.194 181.585 106.287 181.065 106.287 180.449ZM114.915 176.085H116.76V181.753C116.76 182.389 116.608 182.946 116.304 183.423C116.003 183.901 115.581 184.273 115.038 184.54C114.496 184.804 113.864 184.936 113.142 184.936C112.418 184.936 111.784 184.804 111.241 184.54C110.699 184.273 110.277 183.901 109.976 183.423C109.675 182.946 109.524 182.389 109.524 181.753V176.085H111.369V181.595C111.369 181.928 111.442 182.223 111.587 182.482C111.734 182.74 111.942 182.943 112.209 183.091C112.476 183.239 112.787 183.312 113.142 183.312C113.5 183.312 113.811 183.239 114.075 183.091C114.342 182.943 114.548 182.74 114.693 182.482C114.841 182.223 114.915 181.928 114.915 181.595V176.085ZM118.278 184.812V176.085H121.721C122.38 176.085 122.943 176.203 123.409 176.439C123.877 176.672 124.234 177.003 124.478 177.432C124.725 177.858 124.849 178.359 124.849 178.936C124.849 179.516 124.724 180.014 124.474 180.432C124.224 180.847 123.862 181.165 123.387 181.386C122.916 181.608 122.345 181.719 121.674 181.719H119.369V180.236H121.376C121.728 180.236 122.021 180.187 122.254 180.091C122.487 179.994 122.66 179.849 122.774 179.656C122.89 179.463 122.949 179.223 122.949 178.936C122.949 178.646 122.89 178.402 122.774 178.203C122.66 178.004 122.485 177.854 122.25 177.751C122.017 177.646 121.723 177.594 121.368 177.594H120.123V184.812H118.278ZM122.991 180.841L125.16 184.812H123.123L121.001 180.841H122.991ZM130.776 176.085V184.812H128.93V176.085H130.776ZM139.593 176.085V184.812H138L134.203 179.32H134.139V184.812H132.294V176.085H133.913L137.68 181.574H137.757V176.085H139.593ZM144.212 184.812H141.118V176.085H144.237C145.115 176.085 145.871 176.26 146.504 176.609C147.138 176.956 147.625 177.455 147.966 178.105C148.31 178.756 148.482 179.534 148.482 180.44C148.482 181.349 148.31 182.131 147.966 182.784C147.625 183.437 147.135 183.939 146.496 184.288C145.859 184.638 145.098 184.812 144.212 184.812ZM142.963 183.232H144.135C144.68 183.232 145.139 183.135 145.511 182.942C145.886 182.746 146.168 182.443 146.355 182.034C146.545 181.622 146.641 181.091 146.641 180.44C146.641 179.795 146.545 179.268 146.355 178.859C146.168 178.45 145.888 178.149 145.516 177.956C145.143 177.763 144.685 177.666 144.139 177.666H142.963V183.232ZM155.239 176.085H157.084V181.753C157.084 182.389 156.932 182.946 156.628 183.423C156.327 183.901 155.905 184.273 155.363 184.54C154.82 184.804 154.188 184.936 153.466 184.936C152.742 184.936 152.108 184.804 151.566 184.54C151.023 184.273 150.601 183.901 150.3 183.423C149.999 182.946 149.848 182.389 149.848 181.753V176.085H151.694V181.595C151.694 181.928 151.766 182.223 151.911 182.482C152.059 182.74 152.266 182.943 152.533 183.091C152.8 183.239 153.111 183.312 153.466 183.312C153.824 183.312 154.135 183.239 154.4 183.091C154.667 182.943 154.873 182.74 155.017 182.482C155.165 182.223 155.239 181.928 155.239 181.595V176.085ZM163.337 178.595C163.303 178.251 163.156 177.984 162.898 177.794C162.639 177.604 162.288 177.509 161.845 177.509C161.544 177.509 161.29 177.551 161.082 177.636C160.875 177.719 160.716 177.834 160.605 177.982C160.497 178.129 160.443 178.297 160.443 178.484C160.438 178.641 160.47 178.777 160.541 178.893C160.615 179.01 160.716 179.111 160.844 179.196C160.972 179.278 161.119 179.351 161.287 179.413C161.455 179.473 161.634 179.524 161.824 179.567L162.608 179.754C162.989 179.839 163.338 179.953 163.656 180.095C163.974 180.237 164.25 180.412 164.483 180.619C164.716 180.827 164.896 181.071 165.024 181.352C165.155 181.634 165.222 181.956 165.224 182.32C165.222 182.854 165.085 183.317 164.815 183.709C164.548 184.098 164.162 184.401 163.656 184.616C163.153 184.83 162.547 184.936 161.837 184.936C161.132 184.936 160.518 184.828 159.996 184.612C159.476 184.396 159.07 184.077 158.777 183.653C158.487 183.227 158.335 182.7 158.321 182.072H160.107C160.126 182.365 160.21 182.609 160.358 182.805C160.509 182.999 160.709 183.145 160.959 183.244C161.212 183.341 161.497 183.389 161.815 183.389C162.128 183.389 162.399 183.344 162.629 183.253C162.862 183.162 163.043 183.036 163.17 182.874C163.298 182.712 163.362 182.526 163.362 182.315C163.362 182.119 163.304 181.955 163.188 181.821C163.074 181.687 162.906 181.574 162.685 181.48C162.466 181.386 162.197 181.301 161.879 181.224L160.929 180.986C160.193 180.807 159.612 180.527 159.186 180.146C158.76 179.766 158.548 179.253 158.551 178.608C158.548 178.08 158.689 177.618 158.973 177.223C159.26 176.828 159.653 176.52 160.153 176.298C160.653 176.077 161.222 175.966 161.858 175.966C162.506 175.966 163.071 176.077 163.554 176.298C164.04 176.52 164.418 176.828 164.688 177.223C164.957 177.618 165.097 178.075 165.105 178.595H163.337ZM166.133 177.607V176.085H173.301V177.607H170.629V184.812H168.805V177.607H166.133ZM174.481 184.812V176.085H177.924C178.583 176.085 179.146 176.203 179.612 176.439C180.081 176.672 180.437 177.003 180.681 177.432C180.929 177.858 181.052 178.359 181.052 178.936C181.052 179.516 180.927 180.014 180.677 180.432C180.427 180.847 180.065 181.165 179.591 181.386C179.119 181.608 178.548 181.719 177.877 181.719H175.572V180.236H177.579C177.931 180.236 178.224 180.187 178.457 180.091C178.69 179.994 178.863 179.849 178.977 179.656C179.093 179.463 179.152 179.223 179.152 178.936C179.152 178.646 179.093 178.402 178.977 178.203C178.863 178.004 178.689 177.854 178.453 177.751C178.22 177.646 177.926 177.594 177.571 177.594H176.326V184.812H174.481ZM179.194 180.841L181.363 184.812H179.326L177.204 180.841H179.194ZM181.482 176.085H183.548L185.538 179.844H185.624L187.614 176.085H189.68L186.497 181.727V184.812H184.665V181.727L181.482 176.085ZM195.311 176.085V184.812H193.466V176.085H195.311ZM204.129 176.085V184.812H202.535L198.738 179.32H198.674V184.812H196.829V176.085H198.448L202.215 181.574H202.292V176.085H204.129ZM208.43 184.812V176.085H211.874C212.536 176.085 213.099 176.212 213.565 176.464C214.031 176.714 214.386 177.062 214.631 177.509C214.878 177.952 215.001 178.463 215.001 179.043C215.001 179.622 214.876 180.134 214.626 180.577C214.376 181.02 214.014 181.365 213.54 181.612C213.068 181.859 212.497 181.983 211.827 181.983H209.632V180.504H211.528C211.884 180.504 212.176 180.443 212.406 180.321C212.639 180.196 212.813 180.024 212.926 179.805C213.043 179.584 213.101 179.33 213.101 179.043C213.101 178.753 213.043 178.5 212.926 178.284C212.813 178.065 212.639 177.896 212.406 177.777C212.173 177.655 211.878 177.594 211.52 177.594H210.276V184.812H208.43ZM216.2 184.812V176.085H219.643C220.302 176.085 220.865 176.203 221.331 176.439C221.799 176.672 222.156 177.003 222.4 177.432C222.647 177.858 222.771 178.359 222.771 178.936C222.771 179.516 222.646 180.014 222.396 180.432C222.146 180.847 221.784 181.165 221.309 181.386C220.838 181.608 220.267 181.719 219.596 181.719H217.291V180.236H219.298C219.65 180.236 219.943 180.187 220.176 180.091C220.409 179.994 220.582 179.849 220.696 179.656C220.812 179.463 220.87 179.223 220.87 178.936C220.87 178.646 220.812 178.402 220.696 178.203C220.582 178.004 220.407 177.854 220.172 177.751C219.939 177.646 219.645 177.594 219.289 177.594H218.045V184.812H216.2ZM220.913 180.841L223.082 184.812H221.045L218.923 180.841H220.913ZM232.095 180.449C232.095 181.401 231.914 182.21 231.554 182.878C231.196 183.545 230.707 184.055 230.088 184.408C229.471 184.757 228.778 184.932 228.008 184.932C227.233 184.932 226.537 184.756 225.92 184.403C225.304 184.051 224.816 183.541 224.458 182.874C224.1 182.206 223.922 181.398 223.922 180.449C223.922 179.497 224.1 178.688 224.458 178.02C224.816 177.352 225.304 176.844 225.92 176.494C226.537 176.142 227.233 175.966 228.008 175.966C228.778 175.966 229.471 176.142 230.088 176.494C230.707 176.844 231.196 177.352 231.554 178.02C231.914 178.688 232.095 179.497 232.095 180.449ZM230.224 180.449C230.224 179.832 230.132 179.312 229.947 178.889C229.765 178.466 229.508 178.145 229.176 177.926C228.843 177.707 228.454 177.598 228.008 177.598C227.562 177.598 227.173 177.707 226.841 177.926C226.508 178.145 226.25 178.466 226.065 178.889C225.883 179.312 225.792 179.832 225.792 180.449C225.792 181.065 225.883 181.585 226.065 182.009C226.25 182.432 226.508 182.753 226.841 182.972C227.173 183.19 227.562 183.3 228.008 183.3C228.454 183.3 228.843 183.19 229.176 182.972C229.508 182.753 229.765 182.432 229.947 182.009C230.132 181.585 230.224 181.065 230.224 180.449ZM239.249 178.906C239.189 178.699 239.105 178.516 238.997 178.357C238.889 178.195 238.757 178.058 238.601 177.947C238.447 177.834 238.271 177.747 238.072 177.688C237.876 177.628 237.659 177.598 237.42 177.598C236.974 177.598 236.582 177.709 236.244 177.93C235.909 178.152 235.648 178.474 235.46 178.898C235.273 179.318 235.179 179.832 235.179 180.44C235.179 181.048 235.271 181.565 235.456 181.991C235.641 182.418 235.902 182.743 236.24 182.967C236.578 183.189 236.977 183.3 237.438 183.3C237.855 183.3 238.212 183.226 238.507 183.078C238.805 182.928 239.033 182.716 239.189 182.443C239.348 182.17 239.428 181.848 239.428 181.476L239.803 181.531H237.553V180.142H241.205V181.241C241.205 182.009 241.043 182.668 240.719 183.219C240.395 183.767 239.949 184.19 239.381 184.489C238.812 184.784 238.162 184.932 237.429 184.932C236.611 184.932 235.892 184.751 235.273 184.391C234.653 184.027 234.17 183.511 233.824 182.844C233.48 182.173 233.308 181.378 233.308 180.457C233.308 179.75 233.411 179.119 233.615 178.565C233.822 178.009 234.112 177.537 234.484 177.151C234.857 176.764 235.29 176.47 235.784 176.268C236.278 176.067 236.814 175.966 237.391 175.966C237.885 175.966 238.345 176.038 238.771 176.183C239.197 176.325 239.575 176.527 239.905 176.788C240.237 177.05 240.509 177.361 240.719 177.722C240.929 178.08 241.064 178.474 241.124 178.906H239.249ZM242.591 184.812V176.085H246.034C246.693 176.085 247.255 176.203 247.721 176.439C248.19 176.672 248.547 177.003 248.791 177.432C249.038 177.858 249.162 178.359 249.162 178.936C249.162 179.516 249.037 180.014 248.787 180.432C248.537 180.847 248.174 181.165 247.7 181.386C247.228 181.608 246.657 181.719 245.987 181.719H243.681V180.236H245.689C246.041 180.236 246.333 180.187 246.566 180.091C246.799 179.994 246.973 179.849 247.086 179.656C247.203 179.463 247.261 179.223 247.261 178.936C247.261 178.646 247.203 178.402 247.086 178.203C246.973 178.004 246.798 177.854 246.562 177.751C246.329 177.646 246.035 177.594 245.68 177.594H244.436V184.812H242.591ZM247.304 180.841L249.473 184.812H247.436L245.314 180.841H247.304ZM250.466 184.812V176.085H256.346V177.607H252.311V179.686H256.044V181.207H252.311V183.291H256.363V184.812H250.466ZM262.548 178.595C262.513 178.251 262.367 177.984 262.109 177.794C261.85 177.604 261.499 177.509 261.056 177.509C260.755 177.509 260.501 177.551 260.293 177.636C260.086 177.719 259.927 177.834 259.816 177.982C259.708 178.129 259.654 178.297 259.654 178.484C259.648 178.641 259.681 178.777 259.752 178.893C259.826 179.01 259.927 179.111 260.055 179.196C260.183 179.278 260.33 179.351 260.498 179.413C260.665 179.473 260.844 179.524 261.035 179.567L261.819 179.754C262.2 179.839 262.549 179.953 262.867 180.095C263.185 180.237 263.461 180.412 263.694 180.619C263.927 180.827 264.107 181.071 264.235 181.352C264.366 181.634 264.433 181.956 264.435 182.32C264.433 182.854 264.296 183.317 264.026 183.709C263.759 184.098 263.373 184.401 262.867 184.616C262.364 184.83 261.758 184.936 261.048 184.936C260.343 184.936 259.729 184.828 259.207 184.612C258.687 184.396 258.281 184.077 257.988 183.653C257.698 183.227 257.546 182.7 257.532 182.072H259.317C259.337 182.365 259.421 182.609 259.569 182.805C259.719 182.999 259.92 183.145 260.17 183.244C260.423 183.341 260.708 183.389 261.026 183.389C261.339 183.389 261.61 183.344 261.84 183.253C262.073 183.162 262.254 183.036 262.381 182.874C262.509 182.712 262.573 182.526 262.573 182.315C262.573 182.119 262.515 181.955 262.398 181.821C262.285 181.687 262.117 181.574 261.896 181.48C261.677 181.386 261.408 181.301 261.09 181.224L260.14 180.986C259.404 180.807 258.823 180.527 258.397 180.146C257.971 179.766 257.759 179.253 257.762 178.608C257.759 178.08 257.9 177.618 258.184 177.223C258.471 176.828 258.864 176.52 259.364 176.298C259.864 176.077 260.433 175.966 261.069 175.966C261.717 175.966 262.282 176.077 262.765 176.298C263.251 176.52 263.629 176.828 263.898 177.223C264.168 177.618 264.308 178.075 264.316 178.595H262.548ZM270.411 178.595C270.377 178.251 270.23 177.984 269.972 177.794C269.713 177.604 269.363 177.509 268.919 177.509C268.618 177.509 268.364 177.551 268.157 177.636C267.949 177.719 267.79 177.834 267.679 177.982C267.571 178.129 267.517 178.297 267.517 178.484C267.512 178.641 267.544 178.777 267.615 178.893C267.689 179.01 267.79 179.111 267.918 179.196C268.046 179.278 268.194 179.351 268.361 179.413C268.529 179.473 268.708 179.524 268.898 179.567L269.682 179.754C270.063 179.839 270.412 179.953 270.73 180.095C271.049 180.237 271.324 180.412 271.557 180.619C271.79 180.827 271.971 181.071 272.098 181.352C272.229 181.634 272.296 181.956 272.299 182.32C272.296 182.854 272.159 183.317 271.89 183.709C271.623 184.098 271.236 184.401 270.73 184.616C270.228 184.83 269.621 184.936 268.911 184.936C268.206 184.936 267.593 184.828 267.07 184.612C266.55 184.396 266.144 184.077 265.851 183.653C265.561 183.227 265.409 182.7 265.395 182.072H267.181C267.201 182.365 267.284 182.609 267.432 182.805C267.583 182.999 267.783 183.145 268.033 183.244C268.286 183.341 268.571 183.389 268.89 183.389C269.202 183.389 269.473 183.344 269.703 183.253C269.936 183.162 270.117 183.036 270.245 182.874C270.373 182.712 270.436 182.526 270.436 182.315C270.436 182.119 270.378 181.955 270.262 181.821C270.148 181.687 269.98 181.574 269.759 181.48C269.54 181.386 269.272 181.301 268.953 181.224L268.003 180.986C267.267 180.807 266.686 180.527 266.26 180.146C265.834 179.766 265.623 179.253 265.625 178.608C265.623 178.08 265.763 177.618 266.047 177.223C266.334 176.828 266.728 176.52 267.228 176.298C267.728 176.077 268.296 175.966 268.932 175.966C269.58 175.966 270.145 176.077 270.628 176.298C271.114 176.52 271.492 176.828 271.762 177.223C272.032 177.618 272.171 178.075 272.179 178.595H270.411Z" fill="#A3AAB8"/>
</g>
<rect x="46.1016" y="18.6641" width="272.219" height="565.029" rx="39.5156" stroke="#111827" stroke-width="8.78125"/>
</g>
<defs>
<filter id="filter0_d_10166_18367" x="0" y="0.00390625" width="364.422" height="657.234" filterUnits="userSpaceOnUse" color-interpolation-filters="sRGB">
<feFlood flood-opacity="0" result="BackgroundImageFix"/>
<feColorMatrix in="SourceAlpha" type="matrix" values="0 0 0 0 0 0 0 0 0 0 0 0 0 0 0 0 0 0 127 0" result="hardAlpha"/>
<feMorphology radius="13.1719" operator="erode" in="SourceAlpha" result="effect1_dropShadow_10166_18367"/>
<feOffset dy="27.4414"/>
<feGaussianBlur stdDeviation="27.4414"/>
<feComposite in2="hardAlpha" operator="out"/>
<feColorMatrix type="matrix" values="0 0 0 0 0 0 0 0 0 0 0 0 0 0 0 0 0 0 0.25 0"/>
<feBlend mode="normal" in2="BackgroundImageFix" result="effect1_dropShadow_10166_18367"/>
<feBlend mode="normal" in="SourceGraphic" in2="effect1_dropShadow_10166_18367" result="shape"/>
</filter>
<clipPath id="clip0_10166_18367">
<rect x="41.7109" y="14.2734" width="281" height="573.81" rx="43.9062" fill="white"/>
</clipPath>
</defs>
</svg>
