<svg width="30" height="30" viewBox="0 0 30 30" fill="none" xmlns="http://www.w3.org/2000/svg">
<g clip-path="url(#clip0_10177_19205)">
<path d="M30 15C30 6.71573 23.2843 0 15 0C6.71573 0 0 6.71573 0 15C0 23.2843 6.71573 30 15 30C23.2843 30 30 23.2843 30 15Z" fill="white"/>
<g clip-path="url(#clip1_10177_19205)">
<path fill-rule="evenodd" clip-rule="evenodd" d="M15.7604 21.5597V15.6512H17.5542L17.8472 13.0252H15.7604V11.7462C15.7604 11.07 15.7777 10.3992 16.7226 10.3992H17.6796V8.52169C17.6796 8.49346 16.8575 8.42969 16.0259 8.42969C14.289 8.42969 13.2014 9.51764 13.2014 11.5154V13.0252H11.2822V15.6512H13.2014V21.5597H15.7604Z" fill="#0F111A"/>
</g>
</g>
<defs>
<clipPath id="clip0_10177_19205">
<rect width="30" height="30" fill="white"/>
</clipPath>
<clipPath id="clip1_10177_19205">
<rect width="13.13" height="13.13" fill="white" transform="translate(8 8.42969)"/>
</clipPath>
</defs>
</svg>
