<svg width="167" height="16" viewBox="0 0 167 16" fill="none" xmlns="http://www.w3.org/2000/svg">
<path d="M9.30021 4.49143H4.27596V6.43699H9.19331V10.5847H4.27596V15.3096H0V0.34375H9.30021V4.49143Z" fill="#131313"/>
<path d="M17.7806 15.3096L15.4074 10.606H14.3385V15.3096H10.0625V0.34375H16.0488C17.688 0.34375 19.042 0.828358 20.111 1.79758C21.18 2.75254 21.7145 4.02107 21.7145 5.60318C21.7145 6.48688 21.5078 7.28505 21.0945 7.99771C20.6954 8.71037 20.1324 9.28763 19.4055 9.72948L22.3559 15.3096H17.7806ZM14.3385 4.27763V7.057H15.9633C16.4194 7.07126 16.7758 6.95723 17.0323 6.71493C17.3031 6.47262 17.4385 6.13055 17.4385 5.6887C17.4385 5.24685 17.3031 4.90477 17.0323 4.66247C16.7758 4.40591 16.4194 4.27763 15.9633 4.27763H14.3385Z" fill="#131313"/>
<path d="M27.3961 11.3757H32.9548V15.3096H23.1201V0.34375H32.8479V4.23487H27.3961V5.85973H32.3134V9.7081H27.3961V11.3757Z" fill="#131313"/>
<path d="M41.8431 0.34375H46.119V15.3096H42.6983L37.9947 8.46807V15.3096H33.7188V0.34375H37.1395L41.8431 7.18528V0.34375Z" fill="#131313"/>
<path d="M54.7078 15.65C52.4558 15.65 50.5886 14.9017 49.1063 13.4051C47.624 11.9085 46.8828 10.0485 46.8828 7.825C46.8828 5.6015 47.624 3.74146 49.1063 2.24488C50.5886 0.748292 52.4558 0 54.7078 0C56.0904 0 57.366 0.327823 58.5348 0.98347C59.7036 1.63912 60.6158 2.52281 61.2714 3.63456L57.5513 5.77254C57.309 5.28793 56.9313 4.9031 56.4182 4.61803C55.9051 4.33297 55.335 4.19044 54.7078 4.19044C53.6531 4.19044 52.7979 4.53251 52.1422 5.21667C51.4866 5.90082 51.1588 6.77026 51.1588 7.825C51.1588 8.87973 51.4866 9.74918 52.1422 10.4333C52.7979 11.1175 53.6531 11.4596 54.7078 11.4596C55.3492 11.4596 55.9193 11.317 56.4182 11.032C56.9313 10.7469 57.309 10.3549 57.5513 9.85608L61.2714 11.9941C60.6158 13.1201 59.7036 14.0109 58.5348 14.6665C57.366 15.3222 56.0904 15.65 54.7078 15.65Z" fill="#131313"/>
<path d="M69.9457 0.34375H74.2216V15.3096H69.9457V9.79361H66.3111V15.3096H62.0352V0.34375H66.3111V5.64594H69.9457V0.34375Z" fill="#131313"/>
<path d="M84.6053 7.5915C85.8881 8.31841 86.5295 9.42303 86.5295 10.9054C86.5295 12.2737 86.0805 13.3498 85.1825 14.1337C84.2988 14.9176 83.0089 15.3096 81.3128 15.3096H74.9844V0.34375H80.928C82.6098 0.34375 83.8926 0.707207 84.7763 1.43412C85.66 2.16103 86.1019 3.20151 86.1019 4.55557C86.1019 5.85261 85.603 6.86458 84.6053 7.5915ZM80.6714 4.02107H79.2603V6.03077L80.9066 6.00939C81.5195 5.92387 81.8259 5.59605 81.8259 5.02592C81.8259 4.6981 81.7119 4.44867 81.4838 4.27763C81.2558 4.10659 80.985 4.02107 80.6714 4.02107ZM81.0562 11.6323C81.3983 11.6323 81.6834 11.5325 81.9114 11.333C82.1395 11.1334 82.2535 10.8769 82.2535 10.5633C82.2535 9.96465 81.9328 9.61545 81.2914 9.51568L79.2603 9.4943V11.6323H81.0562Z" fill="#131313"/>
<path d="M100.848 13.4051C99.3227 14.9017 97.4484 15.65 95.2249 15.65C93.0014 15.65 91.12 14.9017 89.5806 13.4051C88.0555 11.8943 87.293 10.0342 87.293 7.825C87.293 5.61576 88.0555 3.76284 89.5806 2.26626C91.12 0.755419 93.0014 0 95.2249 0C97.4484 0 99.3227 0.755419 100.848 2.26626C102.387 3.76284 103.157 5.61576 103.157 7.825C103.157 10.0342 102.387 11.8943 100.848 13.4051ZM92.5952 10.4333C93.2936 11.1175 94.1701 11.4596 95.2249 11.4596C96.2796 11.4596 97.1491 11.1175 97.8332 10.4333C98.5316 9.73493 98.8808 8.86548 98.8808 7.825C98.8808 6.78452 98.5316 5.9222 97.8332 5.23805C97.1491 4.53964 96.2796 4.19044 95.2249 4.19044C94.1701 4.19044 93.2936 4.53964 92.5952 5.23805C91.911 5.9222 91.5689 6.78452 91.5689 7.825C91.5689 8.86548 91.911 9.73493 92.5952 10.4333Z" fill="#131313"/>
<path d="M112.044 0.34375H116.32V15.3096H112.899L108.196 8.46807V15.3096H103.92V0.34375H107.341L112.044 7.18528V0.34375Z" fill="#131313"/>
<path d="M129.826 15.3096H125.08L121.36 8.89566V15.3096H117.084V0.34375H121.36V6.33009L124.866 0.34375H129.613L125.166 7.61288L129.826 15.3096Z" fill="#131313"/>
<path d="M134.866 11.3757H140.425V15.3096H130.59V0.34375H140.318V4.23487H134.866V5.85973H139.783V9.7081H134.866V11.3757Z" fill="#131313"/>
<path d="M148.907 15.3096L146.533 10.606H145.464V15.3096H141.188V0.34375H147.175C148.814 0.34375 150.168 0.828358 151.237 1.79758C152.306 2.75254 152.84 4.02107 152.84 5.60318C152.84 6.48688 152.634 7.28505 152.22 7.99771C151.821 8.71037 151.258 9.28763 150.531 9.72948L153.482 15.3096H148.907ZM145.464 4.27763V7.057H147.089C147.545 7.07126 147.902 6.95723 148.158 6.71493C148.429 6.47262 148.565 6.13055 148.565 5.6887C148.565 5.24685 148.429 4.90477 148.158 4.66247C147.902 4.40591 147.545 4.27763 147.089 4.27763H145.464Z" fill="#131313"/>
<path d="M160.488 15.65C158.863 15.65 157.509 15.315 156.426 14.6451C155.343 13.961 154.616 13.0417 154.245 11.8872L157.901 9.77056C158.4 11.0391 159.298 11.6734 160.595 11.6734C161.564 11.6734 162.049 11.4168 162.049 10.9037C162.049 10.7612 162.013 10.6329 161.942 10.5189C161.871 10.4048 161.735 10.3051 161.536 10.2195C161.336 10.134 161.158 10.0699 161.001 10.0271C160.859 9.9701 160.602 9.89171 160.231 9.79194C159.861 9.69217 159.583 9.61377 159.398 9.55676C156.419 8.65881 154.929 7.05533 154.929 4.74631C154.929 3.378 155.421 2.24488 156.404 1.34693C157.402 0.448975 158.706 0 160.317 0C161.586 0 162.719 0.299317 163.716 0.89795C164.728 1.49658 165.47 2.3589 165.94 3.4849L162.391 5.55874C161.977 4.50401 161.293 3.97664 160.338 3.97664C159.968 3.97664 159.683 4.05503 159.483 4.21182C159.298 4.35435 159.205 4.53964 159.205 4.76769C159.205 5.08126 159.369 5.32356 159.697 5.4946C160.039 5.66564 160.688 5.88657 161.643 6.15738C162.355 6.37117 162.94 6.57785 163.396 6.77739C163.852 6.96268 164.329 7.23349 164.828 7.58982C165.327 7.9319 165.698 8.38087 165.94 8.93675C166.196 9.47837 166.325 10.1198 166.325 10.8609C166.325 12.386 165.797 13.569 164.743 14.41C163.702 15.2367 162.284 15.65 160.488 15.65Z" fill="#131313"/>
</svg>
