<svg width="30" height="30" viewBox="0 0 30 30" fill="none" xmlns="http://www.w3.org/2000/svg">
<g clip-path="url(#clip0_10177_19205)">
<path d="M30 15C30 6.71573 23.2843 0 15 0C6.71573 0 0 6.71573 0 15C0 23.2843 6.71573 30 15 30C23.2843 30 30 23.2843 30 15Z" fill="white"/>
<g clip-path="url(#clip1_10177_19205)">
<path d="M17.9085 8.47972C18.5743 8.51011 19.0346 8.60795 19.4606 8.77351C19.8867 8.93913 20.2095 9.14908 20.5302 9.46982C20.8509 9.79055 21.0609 10.1132 21.2265 10.5395C21.3921 10.9655 21.4899 11.4257 21.5203 12.0916C21.5579 12.9173 21.5625 13.2084 21.5625 15C21.5625 16.7916 21.5579 17.0827 21.5203 17.9084C21.4899 18.5743 21.3921 19.0345 21.2265 19.4607C21.0608 19.8868 20.8509 20.2095 20.5302 20.5301C20.2095 20.8509 19.8868 21.0609 19.4605 21.2265C19.0344 21.3921 18.5742 21.4899 17.9085 21.5203C17.0829 21.5579 16.7919 21.5625 15 21.5625C13.2081 21.5625 12.9171 21.5579 12.0916 21.5203C11.4258 21.4899 10.9655 21.3921 10.5394 21.2265C10.1132 21.0609 9.79047 20.8509 9.4698 20.5302C9.14908 20.2095 8.9391 19.8867 8.77346 19.4605C8.60793 19.0345 8.51011 18.5743 8.47972 17.9085C8.44207 17.0832 8.4375 16.7924 8.4375 15C8.4375 13.2076 8.44207 12.9168 8.47972 12.0915C8.51011 11.4257 8.60793 10.9655 8.77348 10.5394C8.93909 10.1133 9.14906 9.79056 9.46977 9.46985C9.79047 9.14911 10.1132 8.93915 10.5394 8.77351C10.9654 8.60796 11.4257 8.51011 12.0915 8.47972C12.9168 8.44207 13.2076 8.4375 15 8.4375C16.7924 8.4375 17.0832 8.44207 17.9085 8.47972ZM15 9.89583C13.2279 9.89583 12.9569 9.90009 12.158 9.93654C11.651 9.95968 11.3466 10.0244 11.0677 10.1328C10.8295 10.2254 10.6782 10.3238 10.501 10.501C10.3238 10.6782 10.2253 10.8296 10.1328 11.0676C10.0244 11.3467 9.95968 11.651 9.93654 12.158C9.90009 12.9569 9.89583 13.2279 9.89583 15C9.89583 16.7721 9.90009 17.0431 9.93654 17.842C9.95968 18.349 10.0244 18.6533 10.1328 18.9323C10.2253 19.1704 10.3238 19.3218 10.501 19.499C10.6782 19.6762 10.8295 19.7746 11.0676 19.8672C11.3467 19.9756 11.6511 20.0403 12.158 20.0634C12.9572 20.0999 13.2284 20.1042 15 20.1042C16.7716 20.1042 17.0428 20.0999 17.842 20.0634C18.3489 20.0403 18.6532 19.9756 18.9323 19.8672C19.1705 19.7746 19.3218 19.6762 19.499 19.499C19.6762 19.3218 19.7747 19.1704 19.8672 18.9324C19.9756 18.6533 20.0403 18.349 20.0635 17.842C20.0999 17.0426 20.1042 16.7713 20.1042 15C20.1042 13.2287 20.0999 12.9574 20.0635 12.158C20.0403 11.651 19.9756 11.3467 19.8673 11.0677C19.7747 10.8296 19.6762 10.6782 19.499 10.501C19.3218 10.3238 19.1705 10.2254 18.9323 10.1328C18.6533 10.0244 18.349 9.95968 17.842 9.93654C17.0431 9.90009 16.7721 9.89583 15 9.89583ZM15 18.4028C13.1207 18.4028 11.5972 16.8793 11.5972 15C11.5972 13.1207 13.1207 11.5972 15 11.5972C16.8793 11.5972 18.4028 13.1207 18.4028 15C18.4028 16.8793 16.8793 18.4028 15 18.4028ZM15 16.9444C16.0739 16.9444 16.9444 16.0739 16.9444 15C16.9444 13.9261 16.0739 13.0556 15 13.0556C13.9261 13.0556 13.0556 13.9261 13.0556 15C13.0556 16.0739 13.9261 16.9444 15 16.9444ZM18.4028 12.3264C18.0001 12.3264 17.6736 11.9999 17.6736 11.5972C17.6736 11.1945 18.0001 10.8681 18.4028 10.8681C18.8055 10.8681 19.1319 11.1945 19.1319 11.5972C19.1319 11.9999 18.8055 12.3264 18.4028 12.3264Z" fill="#0F111A"/>
</g>
</g>
<defs>
<clipPath id="clip0_10177_19205">
<rect width="30" height="30" fill="white"/>
</clipPath>
<clipPath id="clip1_10177_19205">
<rect width="13.125" height="13.125" fill="white" transform="translate(8.4375 8.4375)"/>
</clipPath>
</defs>
</svg>
