<svg width="30" height="30" viewBox="0 0 30 30" fill="none" xmlns="http://www.w3.org/2000/svg">
<g clip-path="url(#clip0_10177_19195)">
<path d="M30 15C30 6.71573 23.2843 0 15 0C6.71573 0 0 6.71573 0 15C0 23.2843 6.71573 30 15 30C23.2843 30 30 23.2843 30 15Z" fill="white"/>
<path d="M11.8299 10.0239C11.8299 10.9 11.0705 11.6103 10.1337 11.6103C9.19691 11.6103 8.4375 10.9 8.4375 10.0239C8.4375 9.14775 9.19691 8.4375 10.1337 8.4375C11.0705 8.4375 11.8299 9.14775 11.8299 10.0239Z" fill="#0F111A"/>
<path d="M8.66992 12.7734H11.5694V21.5596H8.66992V12.7734Z" fill="#0F111A"/>
<path d="M16.2374 12.7778H13.3379V21.564H16.2374C16.2374 21.564 16.2374 18.798 16.2374 17.0686C16.2374 16.0305 16.5919 14.9879 18.0061 14.9879C19.6043 14.9879 19.5948 16.3463 19.5873 17.3988C19.5775 18.7743 19.6008 20.1783 19.6008 21.564H22.5003V16.9268C22.4757 13.9659 21.7041 12.6016 19.1659 12.6016C17.6585 12.6016 16.724 13.2859 16.2374 13.9051V12.7778Z" fill="#0F111A"/>
</g>
<defs>
<clipPath id="clip0_10177_19195">
<rect width="30" height="30" fill="white"/>
</clipPath>
</defs>
</svg>
