<svg width="13" height="13" viewBox="0 0 13 13" fill="none" xmlns="http://www.w3.org/2000/svg">
<g clip-path="url(#clip0_12_7627)">
<path d="M5.7663 0.8592C5.96824 0.23769 6.8475 0.237689 7.04948 0.859193L8.07391 4.01207C8.16417 4.29002 8.42321 4.4782 8.71544 4.4782H12.0306C12.6841 4.4782 12.9558 5.31443 12.4271 5.69854L9.74507 7.64713C9.50869 7.81888 9.40973 8.12339 9.50006 8.40132L10.5245 11.5542C10.7264 12.1757 10.015 12.6925 9.48637 12.3084L6.8044 10.3598C6.56795 10.188 6.24779 10.188 6.01136 10.3598L3.32937 12.3084C2.80068 12.6925 2.08934 12.1757 2.29127 11.5542L3.31571 8.40132C3.40602 8.12339 3.30709 7.81888 3.07065 7.64713L0.388652 5.69854C-0.140033 5.31443 0.131676 4.4782 0.785171 4.4782H4.1003C4.39255 4.4782 4.65156 4.29002 4.74187 4.01207L5.7663 0.8592Z" fill="#F89500"/>
</g>
<defs>
<clipPath id="clip0_12_7627">
<rect width="12.8172" height="12.8172" fill="white"/>
</clipPath>
</defs>
</svg>
