<svg width="13" height="13" viewBox="0 0 13 13" fill="none" xmlns="http://www.w3.org/2000/svg">
<g clip-path="url(#clip0_12_7698)">
<path d="M5.7659 0.8592C5.96785 0.23769 6.84711 0.237689 7.04908 0.859193L8.07351 4.01207C8.16377 4.29002 8.42282 4.4782 8.71505 4.4782H12.0302C12.6837 4.4782 12.9554 5.31443 12.4267 5.69854L9.74467 7.64713C9.5083 7.81888 9.40934 8.12339 9.49966 8.40132L10.5241 11.5542C10.726 12.1757 10.0146 12.6925 9.48597 12.3084L6.804 10.3598C6.56756 10.188 6.2474 10.188 6.01096 10.3598L3.32897 12.3084C2.80028 12.6925 2.08894 12.1757 2.29088 11.5542L3.31531 8.40132C3.40562 8.12339 3.30669 7.81888 3.07025 7.64713L0.388255 5.69854C-0.14043 5.31443 0.131279 4.4782 0.784774 4.4782H4.0999C4.39215 4.4782 4.65116 4.29002 4.74148 4.01207L5.7659 0.8592Z" fill="#F89500"/>
</g>
<defs>
<clipPath id="clip0_12_7698">
<rect width="12.8172" height="12.8172" fill="white"/>
</clipPath>
</defs>
</svg>
