<svg width="15" height="15" viewBox="0 0 15 15" fill="none" xmlns="http://www.w3.org/2000/svg">
<rect x="0.5" y="0.5" width="14" height="14" rx="7" stroke="#4B5563"/>
<path d="M6.6 11.5V5.80056H8.39091V11.5H6.6ZM7.5 5.02876C7.22727 5.02876 6.99242 4.95455 6.79545 4.80612C6.59848 4.65523 6.5 4.47464 6.5 4.26438C6.5 4.05411 6.59848 3.87477 6.79545 3.72635C6.99242 3.57545 7.22727 3.5 7.5 3.5C7.77576 3.5 8.01061 3.57545 8.20455 3.72635C8.40152 3.87477 8.5 4.05411 8.5 4.26438C8.5 4.47464 8.40152 4.65523 8.20455 4.80612C8.01061 4.95455 7.77576 5.02876 7.5 5.02876Z" fill="#4B5563"/>
</svg>
