<svg width="170" height="29" viewBox="0 0 170 29" fill="none" xmlns="http://www.w3.org/2000/svg">
<path d="M0 22.717L2.76151 8.61682H8.41398L7.8962 11.2973H8.06879C8.57938 10.4161 9.30212 9.7184 10.237 9.20433C11.1719 8.69026 12.2182 8.43323 13.3761 8.43323C14.5339 8.43323 15.4832 8.69638 16.2239 9.22269C16.9646 9.74288 17.3386 10.4344 17.3457 11.2973H17.5183C17.9642 10.4344 18.6941 9.74288 19.7081 9.22269C20.7221 8.69638 21.8476 8.43323 23.0845 8.43323C24.6594 8.43323 25.8568 8.86774 26.6766 9.73676C27.5036 10.6058 27.7733 11.7624 27.4857 13.2067L25.6303 22.717H19.6758L21.3154 14.4919C21.4161 13.8738 21.3154 13.3903 21.0134 13.0415C20.7113 12.6865 20.2511 12.5091 19.6326 12.5091C19.0213 12.5091 18.5036 12.6865 18.0793 13.0415C17.6622 13.3903 17.4033 13.8738 17.3026 14.4919L15.6629 22.717H9.96733L11.607 14.4919C11.7077 13.8738 11.607 13.3903 11.3049 13.0415C11.0029 12.6865 10.5426 12.5091 9.92418 12.5091C9.31291 12.5091 8.79513 12.6865 8.37083 13.0415C7.95373 13.3903 7.69484 13.8738 7.59416 14.4919L5.95451 22.717H0Z" fill="white"/>
<path d="M36.4633 22.9741C34.6654 22.9741 33.184 22.6711 32.019 22.0653C30.8611 21.4533 30.0485 20.6026 29.5811 19.5133C29.1136 18.4178 29.0201 17.1479 29.3006 15.7036C29.5811 14.2594 30.1672 12.9925 31.0589 11.9032C31.9506 10.8077 33.0977 9.95708 34.5 9.35121C35.9023 8.73922 37.506 8.43323 39.3111 8.43323C41.1017 8.43323 42.576 8.73922 43.7338 9.35121C44.8988 9.95708 45.7151 10.8077 46.1825 11.9032C46.6571 12.9925 46.7542 14.2594 46.4738 15.7036C46.1933 17.1479 45.6036 18.4178 44.7047 19.5133C43.8057 20.6026 42.6551 21.4533 41.2528 22.0653C39.8576 22.6711 38.2611 22.9741 36.4633 22.9741ZM37.1968 19.2287C37.9663 19.2287 38.6351 18.9135 39.2032 18.2832C39.7785 17.6467 40.1741 16.7746 40.3898 15.6669C40.5983 14.5592 40.5408 13.6902 40.2172 13.0599C39.9008 12.4234 39.3542 12.1052 38.5776 12.1052C37.8009 12.1052 37.1249 12.4234 36.5496 13.0599C35.9814 13.6902 35.5931 14.5592 35.3846 15.6669C35.1688 16.7746 35.2192 17.6467 35.5356 18.2832C35.8592 18.9135 36.4129 19.2287 37.1968 19.2287Z" fill="white"/>
<path d="M47.423 22.717L51.0907 3.91675H57.0452L55.6644 11.077H55.7507C56.2038 10.361 56.8726 9.74288 57.7571 9.22269C58.6417 8.69638 59.6988 8.43323 60.9285 8.43323C62.0216 8.43323 63.0105 8.68108 63.895 9.17679C64.7867 9.6725 65.4376 10.4528 65.8475 11.5176C66.2646 12.5825 66.3077 13.9656 65.9769 15.6669C65.6605 17.2948 65.0996 18.6442 64.2941 19.7152C63.4887 20.7862 62.5394 21.5849 61.4463 22.1112C60.3532 22.6375 59.217 22.9006 58.0376 22.9006C56.8726 22.9006 55.9449 22.665 55.2545 22.1938C54.5713 21.7164 54.1326 21.1197 53.9385 20.4037H53.7659L53.3344 22.717H47.423ZM54.6288 15.6669C54.4347 16.6951 54.5102 17.509 54.8554 18.1088C55.2077 18.7085 55.7939 19.0084 56.6137 19.0084C57.4335 19.0084 58.1275 18.7146 58.6956 18.1271C59.2709 17.5335 59.6557 16.7134 59.8498 15.6669C60.044 14.6204 59.9721 13.8034 59.6341 13.2159C59.3033 12.6223 58.728 12.3255 57.9081 12.3255C57.0883 12.3255 56.3835 12.6223 55.7938 13.2159C55.2113 13.8034 54.823 14.6204 54.6288 15.6669Z" fill="white"/>
<path d="M67.088 22.717L69.8495 8.61682H75.804L73.0425 22.717H67.088ZM73.2151 7.22149C72.4169 7.22149 71.7624 6.98282 71.2518 6.50546C70.7484 6.02199 70.5399 5.4406 70.6262 4.7613C70.7125 4.08199 71.0721 3.50366 71.7049 3.02631C72.3449 2.54284 73.0641 2.30111 73.8623 2.30111C74.6822 2.30111 75.351 2.54284 75.8687 3.02631C76.3937 3.50366 76.6023 4.08199 76.4944 4.7613C76.3865 5.4406 76.0162 6.02199 75.3833 6.50546C74.7577 6.98282 74.0349 7.22149 73.2151 7.22149Z" fill="white"/>
<path d="M99.9403 -0.000265121L87.2087 22.717H80.305L77.5003 8.61682H83.7569L84.6198 17.9435H84.7924L94.3426 3.07126e-05L99.9403 -0.000265121Z" fill="white"/>
<path d="M101.904 22.9741C100.106 22.9741 98.6243 22.6711 97.4592 22.0653C96.3014 21.4533 95.4888 20.6026 95.0213 19.5133C94.5539 18.4178 94.4604 17.1479 94.7409 15.7036C95.0213 14.2594 95.6074 12.9925 96.4992 11.9032C97.3909 10.8077 98.5379 9.95708 99.9403 9.35121C101.343 8.73922 102.946 8.43323 104.751 8.43323C106.542 8.43323 108.016 8.73922 109.174 9.35121C110.339 9.95708 111.155 10.8077 111.623 11.9032C112.097 12.9925 112.194 14.2594 111.914 15.7036C111.634 17.1479 111.044 18.4178 110.145 19.5133C109.246 20.6026 108.095 21.4533 106.693 22.0653C105.298 22.6711 103.701 22.9741 101.904 22.9741ZM102.637 19.2287C103.407 19.2287 104.075 18.9135 104.643 18.2832C105.219 17.6467 105.614 16.7746 105.83 15.6669C106.039 14.5592 105.981 13.6902 105.657 13.0599C105.341 12.4234 104.795 12.1052 104.018 12.1052C103.241 12.1052 102.565 12.4234 101.99 13.0599C101.422 13.6902 101.033 14.5592 100.825 15.6669C100.609 16.7746 100.659 17.6467 100.976 18.2832C101.299 18.9135 101.853 19.2287 102.637 19.2287Z" fill="white"/>
<path d="M119.897 28.1515C117.394 28.1515 115.528 27.72 114.298 26.8571C113.068 25.9942 112.518 24.9202 112.648 23.635H118.386C118.408 24.0206 118.627 24.299 119.044 24.4704C119.469 24.6478 120.026 24.7366 120.716 24.7366C121.493 24.7366 122.165 24.5805 122.734 24.2684C123.302 23.9624 123.65 23.4331 123.78 22.6803L124.255 20.2936H124.082C123.629 21.0096 122.946 21.5634 122.032 21.9551C121.126 22.3407 120.112 22.5334 118.99 22.5334C117.811 22.5334 116.772 22.3009 115.873 21.8358C114.981 21.3707 114.334 20.6332 113.931 19.6234C113.536 18.6136 113.496 17.2948 113.813 15.6669C114.143 13.9656 114.726 12.5825 115.56 11.5176C116.394 10.4528 117.354 9.6725 118.44 9.17679C119.526 8.68108 120.616 8.43323 121.709 8.43323C122.938 8.43323 123.888 8.69638 124.557 9.22269C125.225 9.74288 125.657 10.361 125.851 11.077H125.98L126.455 8.61682H132.41L129.648 22.6803C129.432 23.8308 128.882 24.8131 127.998 25.627C127.12 26.4471 125.984 27.0713 124.589 27.4997C123.201 27.9342 121.637 28.1515 119.897 28.1515ZM121.881 18.9349C122.701 18.9349 123.402 18.6473 123.985 18.072C124.575 17.4968 124.966 16.6951 125.161 15.6669C125.355 14.6204 125.276 13.8034 124.923 13.2159C124.578 12.6223 123.996 12.3255 123.176 12.3255C122.356 12.3255 121.658 12.6223 121.083 13.2159C120.515 13.8034 120.134 14.6204 119.94 15.6669C119.745 16.7134 119.814 17.5212 120.145 18.0904C120.483 18.6534 121.062 18.9349 121.881 18.9349Z" fill="white"/>
<path d="M144.629 16.5482L146.182 8.61682H152.137L149.375 22.717H143.723L144.24 20.0365H144.068C143.557 20.9361 142.795 21.6399 141.781 22.1479C140.774 22.6497 139.652 22.9006 138.415 22.9006C137.258 22.9006 136.29 22.6742 135.514 22.2213C134.737 21.7684 134.187 21.1442 133.863 20.3486C133.54 19.553 133.475 18.6412 133.669 17.613L135.438 8.61682H141.393L139.839 16.5482C139.717 17.2459 139.821 17.7936 140.152 18.1914C140.49 18.5892 141.033 18.7881 141.781 18.7881C142.522 18.7881 143.151 18.5892 143.669 18.1914C144.186 17.7936 144.507 17.2459 144.629 16.5482Z" fill="white"/>
<path d="M160.3 22.9741C157.646 22.9741 155.683 22.3315 154.41 21.0463C153.137 19.7611 152.727 17.9802 153.18 15.7036C153.468 14.2471 154.061 12.9742 154.96 11.8848C155.866 10.7955 157.006 9.9479 158.38 9.34203C159.76 8.73616 161.307 8.43323 163.018 8.43323C164.687 8.43323 166.078 8.72698 167.193 9.31449C168.315 9.89588 169.106 10.7282 169.566 11.8114C170.033 12.8885 170.123 14.1737 169.836 15.6669L169.62 16.8419H158.844L158.79 17.0623C158.66 17.7416 158.793 18.3046 159.189 18.7513C159.591 19.192 160.235 19.4123 161.12 19.4123C161.724 19.4123 162.277 19.3052 162.781 19.091C163.284 18.8768 163.665 18.5677 163.924 18.1638H169.361C168.778 19.6326 167.7 20.8015 166.125 21.6705C164.55 22.5396 162.608 22.9741 160.3 22.9741ZM159.458 14.0513H164.658C164.766 13.4454 164.615 12.9528 164.205 12.5733C163.802 12.1878 163.234 11.995 162.5 11.995C161.781 11.995 161.134 12.1817 160.559 12.555C159.991 12.9283 159.624 13.427 159.458 14.0513Z" fill="white"/>
<path d="M99.9404 -0.000265121L87.2089 22.717H80.3051L77.5005 8.61682H83.757L84.62 17.9435H84.7926L94.3428 3.07125e-05L99.9404 -0.000265121Z" fill="#5C41FF"/>
</svg>
