<svg width="13" height="13" viewBox="0 0 13 13" fill="none" xmlns="http://www.w3.org/2000/svg">
<g clip-path="url(#clip0_12_7666)">
<path d="M5.76584 0.8592C5.96779 0.23769 6.84705 0.237689 7.04902 0.859193L8.07345 4.01207C8.16371 4.29002 8.42275 4.4782 8.71499 4.4782H12.0301C12.6836 4.4782 12.9553 5.31443 12.4266 5.69854L9.74461 7.64713C9.50824 7.81888 9.40928 8.12339 9.4996 8.40132L10.524 11.5542C10.7259 12.1757 10.0146 12.6925 9.48591 12.3084L6.80394 10.3598C6.5675 10.188 6.24734 10.188 6.0109 10.3598L3.32891 12.3084C2.80022 12.6925 2.08888 12.1757 2.29082 11.5542L3.31525 8.40132C3.40556 8.12339 3.30663 7.81888 3.07019 7.64713L0.388194 5.69854C-0.140491 5.31443 0.131218 4.4782 0.784713 4.4782H4.09984C4.39209 4.4782 4.6511 4.29002 4.74141 4.01207L5.76584 0.8592Z" fill="#F89500"/>
</g>
<defs>
<clipPath id="clip0_12_7666">
<rect width="12.8172" height="12.8172" fill="white"/>
</clipPath>
</defs>
</svg>
