<svg width="30" height="30" viewBox="0 0 30 30" fill="none" xmlns="http://www.w3.org/2000/svg">
<g clip-path="url(#clip0_12_14015)">
<path d="M15 30C6.71484 30 0 23.2852 0 15C0 6.71484 6.71484 0 15 0C23.2852 0 30 6.71484 30 15C30 23.2852 23.2852 30 15 30ZM19.1543 7.6084C18.6357 7.53516 17.9033 7.5 16.96 7.5C15.8496 7.5 14.9619 7.80762 14.2939 8.42285C13.626 9.03809 13.292 9.90527 13.292 11.0215V12.9844H10.8398V15.6504H13.2949V22.4824H16.2393V15.6445H18.6826L19.0576 12.9814H16.2393V11.2793C16.2393 10.8457 16.3359 10.5234 16.5293 10.3066C16.7227 10.0928 17.0918 9.98438 17.6426 9.98438H19.1543V7.6084Z" fill="white"/>
</g>
<defs>
<clipPath id="clip0_12_14015">
<rect width="30" height="30" fill="white"/>
</clipPath>
</defs>
</svg>
