<svg width="83" height="23" viewBox="0 0 83 23" fill="none" xmlns="http://www.w3.org/2000/svg">
<g clip-path="url(#clip0_12_7297)">
<path d="M19.6426 1.78861C19.6339 1.73486 19.6077 1.6855 19.5679 1.6483C19.5282 1.6111 19.4772 1.58816 19.423 1.5831C19.3353 1.56907 17.41 1.4358 17.41 1.4358L15.9419 -0.0322454C15.8101 -0.179541 15.5169 -0.136054 15.4061 -0.105192C15.392 -0.105192 15.1129 -0.0175169 14.6577 0.13048C14.2144 -1.15029 13.4302 -2.32585 12.0498 -2.32585H11.932C11.5357 -2.83787 11.0517 -3.07425 10.6414 -3.07425C7.42616 -3.06022 5.89288 0.950426 5.40891 2.99994L3.1616 3.68942C2.47212 3.90896 2.44616 3.92509 2.35498 4.58231L0.46048 19.1947L14.6626 21.8531L22.3598 20.1935C22.3598 20.1795 19.6573 1.92889 19.6433 1.79001L19.6426 1.78861ZM13.87 0.377376C13.5123 0.495213 13.0984 0.613049 12.6664 0.745615V0.481184C12.6804 -0.179542 12.5801 -0.837461 12.3732 -1.46592C13.0928 -1.3551 13.5768 -0.547079 13.87 0.377376ZM11.5062 -1.29618C11.7412 -0.603893 11.8569 0.125571 11.8275 0.857139V0.989003L9.3445 1.76055C9.83058 -0.0539892 10.7263 -0.951089 11.5048 -1.28847L11.5062 -1.29618ZM10.5523 -2.18907C10.6996 -2.18557 10.842 -2.13997 10.9634 -2.05721C9.92737 -1.57464 8.83248 -0.356998 8.36253 2.08109L6.39859 2.6829C6.95271 0.832589 8.2454 -2.19328 10.5509 -2.19328L10.5523 -2.18907Z" fill="#95BF47"/>
<path d="M19.4234 1.58173C19.3357 1.5677 17.4104 1.43443 17.4104 1.43443L15.9423 -0.0336162C15.8883 -0.0897288 15.8147 -0.120591 15.7368 -0.121292L14.6651 21.8496L22.3623 20.1901L19.6437 1.80056C19.6254 1.68834 19.537 1.59856 19.4241 1.58102L19.4234 1.58173Z" fill="#5E8E3E"/>
<path d="M12.0491 5.84338L11.0938 8.66304C10.5165 8.38248 9.88458 8.23308 9.24349 8.22115C7.74459 8.22115 7.67234 9.16104 7.67234 9.39671C7.67234 10.6803 11.0356 11.1741 11.0356 14.1999C11.0356 16.5791 9.52265 18.1068 7.49559 18.1068C5.05749 18.1068 3.80899 16.5939 3.80899 16.5939L4.45709 14.4335C4.45709 14.4335 5.73365 15.5347 6.82224 15.5347C6.95235 15.5399 7.08215 15.5185 7.20375 15.4719C7.32536 15.4254 7.43623 15.3546 7.52964 15.2639C7.62305 15.1732 7.69705 15.0644 7.74714 14.9442C7.79724 14.824 7.82238 14.6949 7.82104 14.5647C7.82104 12.8743 5.0596 12.8013 5.0596 10.0406C5.0596 7.71895 6.73316 5.45691 10.0971 5.45691C11.4193 5.47655 12.0512 5.84268 12.0512 5.84268L12.0491 5.84338Z" fill="white"/>
<path d="M30.0959 9.83998C29.4 9.46674 29.0401 9.14415 29.0401 8.70247C29.0401 8.1426 29.5289 7.78091 30.3225 7.78091C30.9116 7.79368 31.4926 7.92075 32.0332 8.15505L32.6748 6.20528C32.6748 6.20528 32.0865 5.75028 30.3625 5.75028C27.9577 5.75028 26.287 7.12773 26.287 9.06328C26.287 10.1581 27.0619 11.0006 28.1035 11.6013C28.945 12.0901 29.241 12.4136 29.241 12.9237C29.241 13.4338 28.8269 13.8595 28.0386 13.8595C26.8771 13.8595 25.7813 13.2587 25.7813 13.2587L25.1006 15.2085C25.1006 15.2085 26.1164 15.8892 27.8129 15.8892C30.2834 15.8892 32.0608 14.6735 32.0608 12.4767C32.0741 11.2876 31.1783 10.4594 30.1057 9.8311L30.0959 9.83998ZM39.9549 5.73873C38.7392 5.73873 37.7776 6.3137 37.0418 7.20149L37.0009 7.18816L38.0567 1.66413H35.3062L32.634 15.7319H35.3862L36.3078 10.9224C36.6686 9.10593 37.6079 7.98264 38.485 7.98264C39.0982 7.98264 39.3399 8.39677 39.3399 8.9984C39.3399 9.4072 39.2991 9.81332 39.22 10.2141L38.1784 15.7186H40.9307L42.0131 10.0311C42.1313 9.44186 42.1997 8.84377 42.213 8.2448C42.1997 6.69495 41.3848 5.76005 39.9558 5.76005L39.9549 5.73873ZM48.424 5.73873C45.111 5.73873 42.9195 8.7318 42.9195 12.0484C42.9195 14.1865 44.2419 15.8963 46.7142 15.8963C49.9641 15.8963 52.1654 12.9832 52.1654 9.58671C52.1654 7.6094 51.0039 5.73873 48.4285 5.73873H48.424ZM47.0732 13.7946C46.1375 13.7946 45.7375 12.9948 45.7375 12.0084C45.7375 10.4318 46.5498 7.85378 48.0499 7.85378C49.0248 7.85378 49.35 8.69536 49.35 9.51117C49.3465 11.2041 48.5324 13.7946 47.075 13.7946H47.0732ZM59.2037 5.73873C57.3375 5.73873 56.2906 7.36323 56.2906 7.36323H56.2497L56.4124 5.90046H53.9747L53.4149 9.5485L51.5042 19.6226H54.244L55.0065 15.5471H55.0598C55.0598 15.5471 55.6197 15.9079 56.6772 15.9079C59.9102 15.9079 62.0208 12.5949 62.0208 9.24635C62.0342 7.40233 61.2086 5.74672 59.2019 5.74672L59.2037 5.73873ZM56.5714 13.8346C56.1561 13.8429 55.752 13.7001 55.4339 13.4329L55.8889 10.854C56.2142 9.14326 57.1047 7.9942 58.0662 7.9942C58.9078 7.9942 59.1611 8.76912 59.1611 9.50495C59.1655 11.2974 58.1124 13.8355 56.575 13.8355L56.5714 13.8346ZM65.9648 1.7841C65.5436 1.78143 65.1383 1.9485 64.8424 2.24799C64.5465 2.54747 64.3821 2.9536 64.398 3.37484C64.398 4.18709 64.9197 4.75229 65.6982 4.75229H65.7391C65.9514 4.76073 66.1633 4.72555 66.3615 4.64893C66.5597 4.57231 66.7402 4.45588 66.8916 4.30681C67.0431 4.15775 67.1624 3.97921 67.2422 3.78224C67.322 3.58526 67.3606 3.37402 67.3556 3.16155C67.3556 2.36174 66.8206 1.7841 65.9781 1.7841H65.9648ZM62.1204 15.7053H64.8726L66.7424 5.95645H63.9804M73.7558 5.94312H71.8336L71.9278 5.48812C72.0905 4.55234 72.6494 3.71076 73.5523 3.71076C73.8515 3.71087 74.149 3.7558 74.4348 3.84406L74.9662 1.69079C74.9662 1.69079 74.4775 1.45084 73.4697 1.45084C72.489 1.42646 71.5318 1.75329 70.7708 2.3724C69.835 3.17222 69.3933 4.32217 69.1712 5.48545L69.0823 5.94046H67.7999L67.3982 8.01108H68.6806L67.2178 15.7071H69.9798L71.4426 8.01108H73.3408L73.7141 5.94046L73.7558 5.94312ZM80.3836 5.95645L77.8847 12.6633H77.8438L77.163 5.95645H74.2624L75.9198 14.9072C75.9596 15.0602 75.9406 15.2226 75.8665 15.3622C75.5065 16.0261 74.9938 16.594 74.3699 17.0196C73.8918 17.3484 73.3702 17.6097 72.8201 17.7946L73.5826 20.1318C74.5907 19.8619 75.5162 19.3462 76.2761 18.6308C77.5319 17.4542 78.6934 15.6377 79.8842 13.1654L83.2505 5.95112H80.3827L80.3836 5.95645Z" fill="black"/>
</g>
<defs>
<clipPath id="clip0_12_7297">
<rect width="82.79" height="22.7973" fill="white"/>
</clipPath>
</defs>
</svg>
