<svg width="17" height="23" viewBox="0 0 17 23" fill="none" xmlns="http://www.w3.org/2000/svg">
<path d="M8.01562 3V0L4.03125 4.03125L8.01562 8.01562V5.01562C11.3438 5.01562 14.0156 7.6875 14.0156 11.0156C14.0156 12.0469 13.7812 12.9844 13.3125 13.8281L14.7656 15.2812C15.5625 14.0625 16.0312 12.5625 16.0312 11.0156C16.0312 6.60938 12.4219 3 8.01562 3ZM8.01562 17.0156C4.6875 17.0156 2.01562 14.3438 2.01562 11.0156C2.01562 9.98438 2.25 9.04688 2.71875 8.20312L1.26562 6.75C0.46875 7.96875 0 9.46875 0 11.0156C0 15.4219 3.60938 19.0312 8.01562 19.0312V22.0312L12 18L8.01562 14.0156V17.0156Z" fill="#2563EB"/>
</svg>
