<svg width="15" height="15" viewBox="0 0 15 15" fill="none" xmlns="http://www.w3.org/2000/svg">
<path d="M7.48828 0C3.33984 0 0 3.33984 0 7.48828C0 11.6367 3.33984 14.9766 7.48828 14.9766C11.6367 14.9766 14.9766 11.6367 14.9766 7.48828C14.9766 3.33984 11.6367 0 7.48828 0ZM7.48828 13.5C4.18359 13.5 1.47656 10.793 1.47656 7.48828C1.47656 4.18359 4.18359 1.47656 7.48828 1.47656C10.793 1.47656 13.5 4.18359 13.5 7.48828C13.5 10.793 10.793 13.5 7.48828 13.5ZM5.625 10.8633L10.8633 7.48828L5.625 4.11328V10.8633Z" fill="#4B5563"/>
</svg>
