<svg width="13" height="13" viewBox="0 0 13 13" fill="none" xmlns="http://www.w3.org/2000/svg">
<g clip-path="url(#clip0_12_7682)">
<path d="M5.767 0.8592C5.96895 0.23769 6.84821 0.237689 7.05018 0.859193L8.07461 4.01207C8.16487 4.29002 8.42391 4.4782 8.71615 4.4782H12.0313C12.6848 4.4782 12.9565 5.31443 12.4278 5.69854L9.74577 7.64713C9.5094 7.81888 9.41043 8.12339 9.50076 8.40132L10.5252 11.5542C10.7271 12.1757 10.0157 12.6925 9.48707 12.3084L6.8051 10.3598C6.56866 10.188 6.2485 10.188 6.01206 10.3598L3.33007 12.3084C2.80138 12.6925 2.09004 12.1757 2.29198 11.5542L3.31641 8.40132C3.40672 8.12339 3.30779 7.81888 3.07135 7.64713L0.389354 5.69854C-0.139331 5.31443 0.132377 4.4782 0.785873 4.4782H4.101C4.39325 4.4782 4.65226 4.29002 4.74257 4.01207L5.767 0.8592Z" fill="#F89500"/>
</g>
<defs>
<clipPath id="clip0_12_7682">
<rect width="12.8172" height="12.8172" fill="white"/>
</clipPath>
</defs>
</svg>
