<svg width="14" height="14" viewBox="0 0 14 14" fill="none" xmlns="http://www.w3.org/2000/svg">
<g clip-path="url(#clip0_12_14021)">
<path d="M9.47095 0.0422208C10.1368 0.0726103 10.5971 0.170453 11.0231 0.336007C11.4492 0.501629 11.772 0.711582 12.0927 1.03232C12.4134 1.35305 12.6234 1.67575 12.789 2.10198C12.9546 2.528 13.0524 2.98823 13.0828 3.65407C13.1204 4.47984 13.125 4.77091 13.125 6.56249C13.125 8.35409 13.1204 8.64516 13.0828 9.47094C13.0524 10.1368 12.9546 10.597 12.789 11.0232C12.6233 11.4493 12.4134 11.772 12.0927 12.0926C11.772 12.4134 11.4493 12.6234 11.023 12.789C10.5969 12.9546 10.1367 13.0524 9.47096 13.0828C8.64538 13.1204 8.35437 13.125 6.5625 13.125C4.77063 13.125 4.47962 13.1204 3.65407 13.0828C2.98827 13.0524 2.52804 12.9546 2.10187 12.789C1.67572 12.6234 1.35297 12.4134 1.0323 12.0927C0.711579 11.772 0.501605 11.4492 0.335955 11.023C0.17043 10.597 0.0726085 10.1368 0.0422209 9.47096C0.00456802 8.6457 0 8.35486 0 6.56249C0 4.77013 0.00456803 4.47929 0.0422213 3.65403C0.0726085 2.98823 0.17043 2.528 0.33598 2.10192C0.501589 1.67579 0.711558 1.35306 1.03227 1.03235C1.35297 0.711615 1.67572 0.501648 2.10189 0.336008C2.52785 0.170459 2.98818 0.0726108 3.65402 0.0422207C4.47932 0.00456762 4.77013 0 6.5625 0C8.35487 0 8.64569 0.00456769 9.47095 0.0422208ZM6.5625 1.45833C4.7904 1.45833 4.51938 1.46259 3.7205 1.49904C3.21352 1.52218 2.90911 1.58688 2.63018 1.69529C2.39202 1.78786 2.24069 1.8863 2.06349 2.06352C1.88626 2.24075 1.78781 2.39208 1.69529 2.63013C1.58687 2.90919 1.52218 3.21354 1.49904 3.72051C1.46259 4.51936 1.45833 4.79041 1.45833 6.56249C1.45833 8.33459 1.46259 8.60564 1.49904 9.40448C1.52218 9.91146 1.58687 10.2158 1.69526 10.4948C1.78781 10.7329 1.88628 10.8843 2.06352 11.0615C2.24069 11.2387 2.39202 11.3371 2.6301 11.4297C2.90922 11.5381 3.21355 11.6028 3.72052 11.6259C4.51971 11.6624 4.7909 11.6667 6.5625 11.6667C8.3341 11.6667 8.60529 11.6624 9.4045 11.6259C9.91144 11.6028 10.2157 11.5381 10.4948 11.4297C10.733 11.3371 10.8843 11.2387 11.0615 11.0615C11.2387 10.8843 11.3372 10.7329 11.4297 10.4949C11.5381 10.2158 11.6028 9.91146 11.626 9.40449C11.6624 8.60512 11.6667 8.33383 11.6667 6.56249C11.6667 4.79116 11.6624 4.51989 11.626 3.72052C11.6028 3.21354 11.5381 2.90919 11.4298 2.63024C11.3372 2.39205 11.2387 2.24071 11.0615 2.06349C10.8843 1.88631 10.733 1.78786 10.4948 1.69529C10.2158 1.58688 9.91147 1.52218 9.40448 1.49904C8.60562 1.46259 8.33459 1.45833 6.5625 1.45833ZM6.5625 9.96528C4.6832 9.96528 3.15972 8.4418 3.15972 6.5625C3.15972 4.6832 4.6832 3.15972 6.5625 3.15972C8.4418 3.15972 9.96528 4.6832 9.96528 6.5625C9.96528 8.4418 8.4418 9.96528 6.5625 9.96528ZM6.5625 8.50694C7.63639 8.50694 8.50694 7.63639 8.50694 6.5625C8.50694 5.48861 7.63639 4.61806 6.5625 4.61806C5.48861 4.61806 4.61806 5.48861 4.61806 6.5625C4.61806 7.63639 5.48861 8.50694 6.5625 8.50694ZM9.96528 3.88889C9.56257 3.88889 9.23611 3.56243 9.23611 3.15972C9.23611 2.75701 9.56257 2.43056 9.96528 2.43056C10.368 2.43056 10.6944 2.75701 10.6944 3.15972C10.6944 3.56243 10.368 3.88889 9.96528 3.88889Z" fill="#0F111A"/>
</g>
<defs>
<clipPath id="clip0_12_14021">
<rect width="13.125" height="13.125" fill="white"/>
</clipPath>
</defs>
</svg>
