<svg width="13" height="13" viewBox="0 0 13 13" fill="none" xmlns="http://www.w3.org/2000/svg">
<g clip-path="url(#clip0_12_7694)">
<path d="M5.76785 0.8592C5.9698 0.23769 6.84906 0.237689 7.05103 0.859193L8.07547 4.01207C8.16573 4.29002 8.42477 4.4782 8.717 4.4782H12.0321C12.6856 4.4782 12.9573 5.31443 12.4287 5.69854L9.74663 7.64713C9.51025 7.81888 9.41129 8.12339 9.50162 8.40132L10.526 11.5542C10.728 12.1757 10.0166 12.6925 9.48792 12.3084L6.80595 10.3598C6.56951 10.188 6.24935 10.188 6.01291 10.3598L3.33092 12.3084C2.80223 12.6925 2.09089 12.1757 2.29283 11.5542L3.31726 8.40132C3.40758 8.12339 3.30864 7.81888 3.07221 7.64713L0.390208 5.69854C-0.138477 5.31443 0.133232 4.4782 0.786728 4.4782H4.10185C4.39411 4.4782 4.65311 4.29002 4.74343 4.01207L5.76785 0.8592Z" fill="#F89500"/>
</g>
<defs>
<clipPath id="clip0_12_7694">
<rect width="12.8172" height="12.8172" fill="white"/>
</clipPath>
</defs>
</svg>
