<svg width="13" height="13" viewBox="0 0 13 13" fill="none" xmlns="http://www.w3.org/2000/svg">
<g clip-path="url(#clip0_12_7658)">
<path d="M5.76627 0.8592C5.96821 0.23769 6.84747 0.237689 7.04945 0.859193L8.07388 4.01207C8.16414 4.29002 8.42318 4.4782 8.71541 4.4782H12.0306C12.684 4.4782 12.9558 5.31443 12.4271 5.69854L9.74504 7.64713C9.50866 7.81888 9.4097 8.12339 9.50003 8.40132L10.5245 11.5542C10.7264 12.1757 10.015 12.6925 9.48634 12.3084L6.80437 10.3598C6.56792 10.188 6.24776 10.188 6.01133 10.3598L3.32934 12.3084C2.80065 12.6925 2.08931 12.1757 2.29124 11.5542L3.31568 8.40132C3.40599 8.12339 3.30706 7.81888 3.07062 7.64713L0.388621 5.69854C-0.140064 5.31443 0.131645 4.4782 0.785141 4.4782H4.10027C4.39252 4.4782 4.65153 4.29002 4.74184 4.01207L5.76627 0.8592Z" fill="#F89500"/>
</g>
<defs>
<clipPath id="clip0_12_7658">
<rect width="12.8172" height="12.8172" fill="white"/>
</clipPath>
</defs>
</svg>
