<svg width="20" height="18" viewBox="0 0 20 18" fill="none" xmlns="http://www.w3.org/2000/svg">
<path d="M18.9844 9.23438C18.9844 3.75 14.7188 0 9.98438 0C5.29688 0 0.984375 3.65625 0.984375 9.28125C0.375 9.60938 0 10.2656 0 11.0156V12.9844C0 14.1094 0.890625 15 1.96875 15H3V8.90625C3 5.01562 6.09375 1.92188 9.98438 1.92188C13.875 1.92188 16.9688 5.01562 16.9688 8.90625V15.9844H9V18H16.9688C18.0938 18 18.9844 17.1094 18.9844 15.9844V14.7656C19.5938 14.4844 19.9688 13.875 19.9688 13.125V10.8281C19.9688 10.125 19.5938 9.51562 18.9844 9.23438ZM6 9.98438C6 9.46875 6.42188 9 6.98438 9C7.54688 9 7.96875 9.46875 7.96875 9.98438C7.96875 10.5469 7.54688 11.0156 6.98438 11.0156C6.42188 11.0156 6 10.5469 6 9.98438ZM12 9.98438C12 9.46875 12.4219 9 12.9844 9C13.5469 9 13.9688 9.46875 13.9688 9.98438C13.9688 10.5469 13.5469 11.0156 12.9844 11.0156C12.4219 11.0156 12 10.5469 12 9.98438ZM15.9844 8.01562C15.5156 5.20312 13.0312 3 10.0312 3C6.98438 3 3.75 5.53125 3.98438 9.46875C6.46875 8.4375 8.34375 6.23438 8.85938 3.5625C10.1719 6.1875 12.8438 8.01562 15.9844 8.01562Z" fill="#16A34A"/>
</svg>
