<svg width="13" height="13" viewBox="0 0 13 13" fill="none" xmlns="http://www.w3.org/2000/svg">
<g clip-path="url(#clip0_12_7631)">
<path d="M5.76788 0.8592C5.96983 0.23769 6.84909 0.237689 7.05106 0.859193L8.0755 4.01207C8.16576 4.29002 8.4248 4.4782 8.71703 4.4782H12.0322C12.6856 4.4782 12.9574 5.31443 12.4287 5.69854L9.74666 7.64713C9.51028 7.81888 9.41132 8.12339 9.50165 8.40132L10.5261 11.5542C10.728 12.1757 10.0166 12.6925 9.48795 12.3084L6.80598 10.3598C6.56954 10.188 6.24938 10.188 6.01294 10.3598L3.33095 12.3084C2.80226 12.6925 2.09092 12.1757 2.29286 11.5542L3.31729 8.40132C3.40761 8.12339 3.30867 7.81888 3.07224 7.64713L0.390239 5.69854C-0.138446 5.31443 0.133262 4.4782 0.786758 4.4782H4.10188C4.39414 4.4782 4.65314 4.29002 4.74346 4.01207L5.76788 0.8592Z" fill="#F89500"/>
</g>
<defs>
<clipPath id="clip0_12_7631">
<rect width="12.8172" height="12.8172" fill="white"/>
</clipPath>
</defs>
</svg>
