<svg width="13" height="13" viewBox="0 0 13 13" fill="none" xmlns="http://www.w3.org/2000/svg">
<g clip-path="url(#clip0_12_7662)">
<path d="M5.76792 0.8592C5.96986 0.23769 6.84912 0.237689 7.05109 0.859193L8.07553 4.01207C8.16579 4.29002 8.42483 4.4782 8.71706 4.4782H12.0322C12.6857 4.4782 12.9574 5.31443 12.4287 5.69854L9.74669 7.64713C9.51031 7.81888 9.41135 8.12339 9.50168 8.40132L10.5261 11.5542C10.728 12.1757 10.0167 12.6925 9.48798 12.3084L6.80602 10.3598C6.56957 10.188 6.24941 10.188 6.01297 10.3598L3.33099 12.3084C2.8023 12.6925 2.09095 12.1757 2.29289 11.5542L3.31732 8.40132C3.40764 8.12339 3.3087 7.81888 3.07227 7.64713L0.390269 5.69854C-0.138416 5.31443 0.133293 4.4782 0.786789 4.4782H4.10191C4.39417 4.4782 4.65318 4.29002 4.74349 4.01207L5.76792 0.8592Z" fill="#F89500"/>
</g>
<defs>
<clipPath id="clip0_12_7662">
<rect width="12.8172" height="12.8172" fill="white"/>
</clipPath>
</defs>
</svg>
