<svg width="18" height="18" viewBox="0 0 18 18" fill="none" xmlns="http://www.w3.org/2000/svg">
<path d="M15.9844 0H2.01562C0.890625 0 0 0.890625 0 2.01562V15.9844C0 17.1094 0.890625 18 2.01562 18H15.9844C17.1094 18 18 17.1094 18 15.9844V2.01562C18 0.890625 17.1094 0 15.9844 0ZM15.9844 15.9844H2.01562V2.01562H15.9844V15.9844ZM3.98438 9H6V14.0156H3.98438V9ZM12 3.98438H14.0156V14.0156H12V3.98438ZM8.01562 11.0156H9.98438V14.0156H8.01562V11.0156ZM8.01562 6.98438H9.98438V9H8.01562V6.98438Z" fill="#9333EA"/>
</svg>
