<svg width="30" height="30" viewBox="0 0 30 30" fill="none" xmlns="http://www.w3.org/2000/svg">
<g clip-path="url(#clip0_12_14009)">
<path d="M30 15C30 6.71573 23.2843 0 15 0C6.71573 0 0 6.71573 0 15C0 23.2843 6.71573 30 15 30C23.2843 30 30 23.2843 30 15Z" fill="white"/>
<path d="M11.8299 10.0239C11.8299 10.9 11.0705 11.6103 10.1337 11.6103C9.19691 11.6103 8.4375 10.9 8.4375 10.0239C8.4375 9.14775 9.19691 8.4375 10.1337 8.4375C11.0705 8.4375 11.8299 9.14775 11.8299 10.0239Z" fill="#0F111A"/>
<path d="M8.66968 12.7734H11.5692V21.5596H8.66968V12.7734Z" fill="#0F111A"/>
<path d="M16.2369 12.7739H13.3374V21.5601H16.2369C16.2369 21.5601 16.2369 18.7941 16.2369 17.0647C16.2369 16.0266 16.5914 14.984 18.0056 14.984C19.6038 14.984 19.5943 16.3424 19.5868 17.3948C19.577 18.7704 19.6003 20.1743 19.6003 21.5601H22.4998V16.9229C22.4752 13.962 21.7037 12.5977 19.1654 12.5977C17.658 12.5977 16.7236 13.282 16.2369 13.9012V12.7739Z" fill="#0F111A"/>
</g>
<defs>
<clipPath id="clip0_12_14009">
<rect width="30" height="30" fill="white"/>
</clipPath>
</defs>
</svg>
