<svg width="170" height="29" viewBox="0 0 170 29" fill="none" xmlns="http://www.w3.org/2000/svg">
<path d="M0 22.7168L2.76151 8.6166H8.41398L7.8962 11.2971H8.06879C8.57938 10.4158 9.30212 9.71818 10.237 9.20411C11.1719 8.69004 12.2182 8.433 13.3761 8.433C14.5339 8.433 15.4832 8.69616 16.2239 9.22247C16.9646 9.74266 17.3386 10.4342 17.3457 11.2971H17.5183C17.9642 10.4342 18.6941 9.74266 19.7081 9.22247C20.7221 8.69616 21.8476 8.433 23.0845 8.433C24.6594 8.433 25.8568 8.86751 26.6766 9.73654C27.5036 10.6056 27.7733 11.7622 27.4857 13.2065L25.6303 22.7168H19.6758L21.3154 14.4917C21.4161 13.8736 21.3154 13.3901 21.0134 13.0413C20.7113 12.6863 20.2511 12.5088 19.6326 12.5088C19.0213 12.5088 18.5036 12.6863 18.0793 13.0413C17.6622 13.3901 17.4033 13.8736 17.3026 14.4917L15.6629 22.7168H9.96733L11.607 14.4917C11.7077 13.8736 11.607 13.3901 11.3049 13.0413C11.0029 12.6863 10.5426 12.5088 9.92418 12.5088C9.31291 12.5088 8.79513 12.6863 8.37083 13.0413C7.95373 13.3901 7.69484 13.8736 7.59416 14.4917L5.95451 22.7168H0Z" fill="white"/>
<path d="M36.4633 22.9738C34.6654 22.9738 33.184 22.6709 32.019 22.065C30.8611 21.453 30.0485 20.6024 29.5811 19.513C29.1136 18.4176 29.0201 17.1477 29.3006 15.7034C29.5811 14.2591 30.1672 12.9923 31.0589 11.903C31.9506 10.8075 33.0977 9.95685 34.5 9.35098C35.9023 8.739 37.506 8.433 39.3111 8.433C41.1017 8.433 42.576 8.739 43.7338 9.35098C44.8988 9.95685 45.7151 10.8075 46.1825 11.903C46.6571 12.9923 46.7542 14.2591 46.4738 15.7034C46.1933 17.1477 45.6036 18.4176 44.7047 19.513C43.8057 20.6024 42.6551 21.453 41.2528 22.065C39.8576 22.6709 38.2611 22.9738 36.4633 22.9738ZM37.1968 19.2285C37.9663 19.2285 38.6351 18.9133 39.2032 18.2829C39.7785 17.6465 40.1741 16.7744 40.3898 15.6667C40.5983 14.559 40.5408 13.69 40.2172 13.0596C39.9008 12.4232 39.3542 12.1049 38.5776 12.1049C37.8009 12.1049 37.1249 12.4232 36.5496 13.0596C35.9814 13.69 35.5931 14.559 35.3846 15.6667C35.1688 16.7744 35.2192 17.6465 35.5356 18.2829C35.8592 18.9133 36.4129 19.2285 37.1968 19.2285Z" fill="white"/>
<path d="M47.423 22.7168L51.0907 3.91653H57.0452L55.6644 11.0768H55.7507C56.2038 10.3608 56.8726 9.74266 57.7571 9.22247C58.6417 8.69616 59.6988 8.433 60.9285 8.433C62.0216 8.433 63.0105 8.68086 63.895 9.17657C64.7867 9.67228 65.4376 10.4526 65.8475 11.5174C66.2646 12.5823 66.3077 13.9654 65.9769 15.6667C65.6605 17.2946 65.0996 18.644 64.2941 19.715C63.4887 20.786 62.5394 21.5846 61.4463 22.1109C60.3532 22.6372 59.217 22.9004 58.0376 22.9004C56.8726 22.9004 55.9449 22.6648 55.2545 22.1936C54.5713 21.7162 54.1326 21.1195 53.9385 20.4035H53.7659L53.3344 22.7168H47.423ZM54.6288 15.6667C54.4347 16.6948 54.5102 17.5088 54.8554 18.1085C55.2077 18.7083 55.7939 19.0082 56.6137 19.0082C57.4335 19.0082 58.1275 18.7144 58.6956 18.1269C59.2709 17.5333 59.6557 16.7132 59.8498 15.6667C60.044 14.6202 59.9721 13.8032 59.6341 13.2157C59.3033 12.6221 58.728 12.3252 57.9081 12.3252C57.0883 12.3252 56.3835 12.6221 55.7938 13.2157C55.2113 13.8032 54.823 14.6202 54.6288 15.6667Z" fill="white"/>
<path d="M67.088 22.7168L69.8495 8.6166H75.804L73.0425 22.7168H67.088ZM73.2151 7.22127C72.4169 7.22127 71.7624 6.98259 71.2518 6.50524C70.7484 6.02177 70.5399 5.44038 70.6262 4.76107C70.7125 4.08177 71.0721 3.50344 71.7049 3.02609C72.3449 2.54262 73.0641 2.30088 73.8623 2.30088C74.6822 2.30088 75.351 2.54262 75.8687 3.02609C76.3937 3.50344 76.6023 4.08177 76.4944 4.76107C76.3865 5.44038 76.0162 6.02177 75.3833 6.50524C74.7577 6.98259 74.0349 7.22127 73.2151 7.22127Z" fill="white"/>
<path d="M99.9403 -0.000488281L87.2087 22.7168H80.305L77.5003 8.6166H83.7569L84.6198 17.9433H84.7924L94.3426 -0.000192447L99.9403 -0.000488281Z" fill="white"/>
<path d="M101.904 22.9738C100.106 22.9738 98.6243 22.6709 97.4592 22.065C96.3014 21.453 95.4888 20.6024 95.0213 19.513C94.5539 18.4176 94.4604 17.1477 94.7409 15.7034C95.0213 14.2591 95.6074 12.9923 96.4992 11.903C97.3909 10.8075 98.5379 9.95685 99.9403 9.35098C101.343 8.739 102.946 8.433 104.751 8.433C106.542 8.433 108.016 8.739 109.174 9.35098C110.339 9.95685 111.155 10.8075 111.623 11.903C112.097 12.9923 112.194 14.2591 111.914 15.7034C111.634 17.1477 111.044 18.4176 110.145 19.513C109.246 20.6024 108.095 21.453 106.693 22.065C105.298 22.6709 103.701 22.9738 101.904 22.9738ZM102.637 19.2285C103.407 19.2285 104.075 18.9133 104.643 18.2829C105.219 17.6465 105.614 16.7744 105.83 15.6667C106.039 14.559 105.981 13.69 105.657 13.0596C105.341 12.4232 104.795 12.1049 104.018 12.1049C103.241 12.1049 102.565 12.4232 101.99 13.0596C101.422 13.69 101.033 14.559 100.825 15.6667C100.609 16.7744 100.659 17.6465 100.976 18.2829C101.299 18.9133 101.853 19.2285 102.637 19.2285Z" fill="white"/>
<path d="M119.897 28.1513C117.394 28.1513 115.528 27.7198 114.298 26.8569C113.068 25.994 112.518 24.92 112.648 23.6348H118.386C118.408 24.0203 118.627 24.2988 119.044 24.4701C119.469 24.6476 120.026 24.7364 120.716 24.7364C121.493 24.7364 122.165 24.5803 122.734 24.2682C123.302 23.9622 123.65 23.4328 123.78 22.6801L124.255 20.2933H124.082C123.629 21.0094 122.946 21.5632 122.032 21.9549C121.126 22.3404 120.112 22.5332 118.99 22.5332C117.811 22.5332 116.772 22.3006 115.873 21.8355C114.981 21.3704 114.334 20.633 113.931 19.6232C113.536 18.6134 113.496 17.2946 113.813 15.6667C114.143 13.9654 114.726 12.5823 115.56 11.5174C116.394 10.4526 117.354 9.67228 118.44 9.17657C119.526 8.68086 120.616 8.433 121.709 8.433C122.938 8.433 123.888 8.69616 124.557 9.22247C125.225 9.74266 125.657 10.3608 125.851 11.0768H125.98L126.455 8.6166H132.41L129.648 22.6801C129.432 23.8306 128.882 24.8129 127.998 25.6268C127.12 26.4469 125.984 27.0711 124.589 27.4995C123.201 27.934 121.637 28.1513 119.897 28.1513ZM121.881 18.9347C122.701 18.9347 123.402 18.6471 123.985 18.0718C124.575 17.4965 124.966 16.6948 125.161 15.6667C125.355 14.6202 125.276 13.8032 124.923 13.2157C124.578 12.6221 123.996 12.3252 123.176 12.3252C122.356 12.3252 121.658 12.6221 121.083 13.2157C120.515 13.8032 120.134 14.6202 119.94 15.6667C119.745 16.7132 119.814 17.521 120.145 18.0902C120.483 18.6532 121.062 18.9347 121.881 18.9347Z" fill="white"/>
<path d="M144.629 16.548L146.182 8.6166H152.137L149.375 22.7168H143.723L144.24 20.0363H144.068C143.557 20.9359 142.795 21.6397 141.781 22.1477C140.774 22.6495 139.652 22.9004 138.415 22.9004C137.258 22.9004 136.29 22.674 135.514 22.2211C134.737 21.7682 134.187 21.144 133.863 20.3484C133.54 19.5528 133.475 18.641 133.669 17.6128L135.438 8.6166H141.393L139.839 16.548C139.717 17.2456 139.821 17.7934 140.152 18.1912C140.49 18.5889 141.033 18.7878 141.781 18.7878C142.522 18.7878 143.151 18.5889 143.669 18.1912C144.186 17.7934 144.507 17.2456 144.629 16.548Z" fill="white"/>
<path d="M160.3 22.9738C157.646 22.9738 155.683 22.3313 154.41 21.0461C153.137 19.7609 152.727 17.98 153.18 15.7034C153.468 14.2469 154.061 12.974 154.96 11.8846C155.866 10.7953 157.006 9.94767 158.38 9.3418C159.76 8.73594 161.307 8.433 163.018 8.433C164.687 8.433 166.078 8.72676 167.193 9.31427C168.315 9.89565 169.106 10.728 169.566 11.8112C170.033 12.8883 170.123 14.1735 169.836 15.6667L169.62 16.8417H158.844L158.79 17.062C158.66 17.7413 158.793 18.3044 159.189 18.7511C159.591 19.1918 160.235 19.4121 161.12 19.4121C161.724 19.4121 162.277 19.305 162.781 19.0908C163.284 18.8766 163.665 18.5675 163.924 18.1636H169.361C168.778 19.6324 167.7 20.8013 166.125 21.6703C164.55 22.5393 162.608 22.9738 160.3 22.9738ZM159.458 14.0511H164.658C164.766 13.4452 164.615 12.9525 164.205 12.5731C163.802 12.1875 163.234 11.9948 162.5 11.9948C161.781 11.9948 161.134 12.1814 160.559 12.5547C159.991 12.9281 159.624 13.4268 159.458 14.0511Z" fill="white"/>
<path d="M99.9404 -0.000488281L87.2089 22.7168H80.3051L77.5005 8.6166H83.757L84.62 17.9433H84.7926L94.3428 -0.000192447L99.9404 -0.000488281Z" fill="#5C41FF"/>
</svg>
