<svg width="13" height="13" viewBox="0 0 13 13" fill="none" xmlns="http://www.w3.org/2000/svg">
<g clip-path="url(#clip0_12_7623)">
<path d="M5.76834 0.8592C5.97029 0.23769 6.84955 0.237689 7.05152 0.859193L8.07595 4.01207C8.16621 4.29002 8.42526 4.4782 8.71749 4.4782H12.0326C12.6861 4.4782 12.9578 5.31443 12.4292 5.69854L9.74712 7.64713C9.51074 7.81888 9.41178 8.12339 9.5021 8.40132L10.5265 11.5542C10.7284 12.1757 10.0171 12.6925 9.48841 12.3084L6.80644 10.3598C6.57 10.188 6.24984 10.188 6.0134 10.3598L3.33141 12.3084C2.80272 12.6925 2.09138 12.1757 2.29332 11.5542L3.31775 8.40132C3.40807 8.12339 3.30913 7.81888 3.07269 7.64713L0.390697 5.69854C-0.137989 5.31443 0.13372 4.4782 0.787216 4.4782H4.10234C4.39459 4.4782 4.6536 4.29002 4.74392 4.01207L5.76834 0.8592Z" fill="#F89500"/>
</g>
<defs>
<clipPath id="clip0_12_7623">
<rect width="12.8172" height="12.8172" fill="white"/>
</clipPath>
</defs>
</svg>
