<svg width="30" height="30" viewBox="0 0 30 30" fill="none" xmlns="http://www.w3.org/2000/svg">
<g clip-path="url(#clip0_10177_19209)">
<path d="M30 15C30 6.71573 23.2843 0 15 0C6.71573 0 0 6.71573 0 15C0 23.2843 6.71573 30 15 30C23.2843 30 30 23.2843 30 15Z" fill="white"/>
<g clip-path="url(#clip1_10177_19209)">
<path d="M16.2483 13.9957L21.1311 8.4375H19.9744L15.7329 13.2626L12.3477 8.4375H8.44238L13.5625 15.7346L8.44238 21.5625H9.59904L14.0753 16.4659L17.6511 21.5625H21.5564M10.0165 9.29166H11.7935L19.9735 20.7503H18.1962" fill="#0F111A"/>
</g>
</g>
<defs>
<clipPath id="clip0_10177_19209">
<rect width="30" height="30" fill="white"/>
</clipPath>
<clipPath id="clip1_10177_19209">
<rect width="13.114" height="13.125" fill="white" transform="translate(8.44238 8.4375)"/>
</clipPath>
</defs>
</svg>
