<svg width="167" height="16" viewBox="0 0 167 16" fill="none" xmlns="http://www.w3.org/2000/svg">
<path d="M9.29996 4.49424H4.27571V6.4398H9.19306V10.5875H4.27571V15.3124H-0.000244141V0.346558H9.29996V4.49424Z" fill="#131313"/>
<path d="M17.781 15.3124L15.4078 10.6089H14.3388V15.3124H10.0629V0.346558H16.0492C17.6883 0.346558 19.0424 0.831166 20.1114 1.80038C21.1804 2.75535 21.7148 4.02388 21.7148 5.60599C21.7148 6.48968 21.5082 7.28786 21.0948 8.00052C20.6957 8.71318 20.1327 9.29043 19.4058 9.73228L22.3562 15.3124H17.781ZM14.3388 4.28044V7.05981H15.9637C16.4198 7.07406 16.7761 6.96004 17.0327 6.71773C17.3035 6.47543 17.4389 6.13335 17.4389 5.6915C17.4389 5.24966 17.3035 4.90758 17.0327 4.66527C16.7761 4.40872 16.4198 4.28044 15.9637 4.28044H14.3388Z" fill="#131313"/>
<path d="M27.3965 11.3785H32.9552V15.3124H23.1205V0.346558H32.8483V4.23768H27.3965V5.86254H32.3139V9.7109H27.3965V11.3785Z" fill="#131313"/>
<path d="M41.8429 0.346558H46.1189V15.3124H42.6981L37.9946 8.47087V15.3124H33.7186V0.346558H37.1394L41.8429 7.18809V0.346558Z" fill="#131313"/>
<path d="M54.7078 15.6515C52.4557 15.6515 50.5886 14.9032 49.1063 13.4066C47.6239 11.9101 46.8828 10.05 46.8828 7.82652C46.8828 5.60303 47.6239 3.74299 49.1063 2.2464C50.5886 0.749818 52.4557 0.00152588 54.7078 0.00152588C56.0903 0.00152588 57.366 0.329349 58.5347 0.984996C59.7035 1.64064 60.6157 2.52434 61.2713 3.63609L57.5513 5.77407C57.309 5.28946 56.9312 4.90462 56.4181 4.61956C55.905 4.33449 55.3349 4.19196 54.7078 4.19196C53.653 4.19196 52.7978 4.53404 52.1422 5.21819C51.4865 5.90234 51.1587 6.77179 51.1587 7.82652C51.1587 8.88126 51.4865 9.7507 52.1422 10.4349C52.7978 11.119 53.653 11.4611 54.7078 11.4611C55.3491 11.4611 55.9193 11.3186 56.4181 11.0335C56.9312 10.7484 57.309 10.3565 57.5513 9.8576L61.2713 11.9956C60.6157 13.1216 59.7035 14.0124 58.5347 14.6681C57.366 15.3237 56.0903 15.6515 54.7078 15.6515Z" fill="#131313"/>
<path d="M69.9452 0.346558H74.2212V15.3124H69.9452V9.79642H66.3107V15.3124H62.0347V0.346558H66.3107V5.64874H69.9452V0.346558Z" fill="#131313"/>
<path d="M84.605 7.5943C85.8878 8.32122 86.5292 9.42584 86.5292 10.9082C86.5292 12.2765 86.0802 13.3526 85.1823 14.1365C84.2986 14.9204 83.0087 15.3124 81.3125 15.3124H74.9841V0.346558H80.9277C82.6096 0.346558 83.8924 0.710014 84.7761 1.43693C85.6598 2.16384 86.1016 3.20432 86.1016 4.55838C86.1016 5.85542 85.6028 6.86739 84.605 7.5943ZM80.6712 4.02388H79.2601V6.03358L80.9063 6.0122C81.5192 5.92668 81.8257 5.59886 81.8257 5.02873C81.8257 4.70091 81.7116 4.45148 81.4836 4.28044C81.2555 4.1094 80.9847 4.02388 80.6712 4.02388ZM81.056 11.6351C81.3981 11.6351 81.6831 11.5353 81.9112 11.3358C82.1392 11.1362 82.2533 10.8797 82.2533 10.5661C82.2533 9.96746 81.9326 9.61826 81.2912 9.51848L79.2601 9.4971V11.6351H81.056Z" fill="#131313"/>
<path d="M100.848 13.4066C99.3226 14.9032 97.4483 15.6515 95.2248 15.6515C93.0013 15.6515 91.1199 14.9032 89.5805 13.4066C88.0555 11.8958 87.2929 10.0358 87.2929 7.82652C87.2929 5.61728 88.0555 3.76437 89.5805 2.26778C91.1199 0.756945 93.0013 0.00152588 95.2248 0.00152588C97.4483 0.00152588 99.3226 0.756945 100.848 2.26778C102.387 3.76437 103.157 5.61728 103.157 7.82652C103.157 10.0358 102.387 11.8958 100.848 13.4066ZM92.5951 10.4349C93.2935 11.119 94.1701 11.4611 95.2248 11.4611C96.2795 11.4611 97.149 11.119 97.8331 10.4349C98.5316 9.73645 98.8808 8.86701 98.8808 7.82652C98.8808 6.78604 98.5316 5.92373 97.8331 5.23957C97.149 4.54117 96.2795 4.19196 95.2248 4.19196C94.1701 4.19196 93.2935 4.54117 92.5951 5.23957C91.9109 5.92373 91.5689 6.78604 91.5689 7.82652C91.5689 8.86701 91.9109 9.73645 92.5951 10.4349Z" fill="#131313"/>
<path d="M112.044 0.346558H116.32V15.3124H112.899L108.196 8.47087V15.3124H103.92V0.346558H107.34L112.044 7.18809V0.346558Z" fill="#131313"/>
<path d="M129.826 15.3124H125.08L121.36 8.89847V15.3124H117.084V0.346558H121.36V6.3329L124.866 0.346558H129.612L125.165 7.61568L129.826 15.3124Z" fill="#131313"/>
<path d="M134.866 11.3785H140.425V15.3124H130.59V0.346558H140.318V4.23768H134.866V5.86254H139.784V9.7109H134.866V11.3785Z" fill="#131313"/>
<path d="M148.906 15.3124L146.533 10.6089H145.464V15.3124H141.188V0.346558H147.175C148.814 0.346558 150.168 0.831166 151.237 1.80038C152.306 2.75535 152.84 4.02388 152.84 5.60599C152.84 6.48968 152.634 7.28786 152.22 8.00052C151.821 8.71318 151.258 9.29043 150.531 9.73228L153.482 15.3124H148.906ZM145.464 4.28044V7.05981H147.089C147.545 7.07406 147.902 6.96004 148.158 6.71773C148.429 6.47543 148.564 6.13335 148.564 5.6915C148.564 5.24966 148.429 4.90758 148.158 4.66527C147.902 4.40872 147.545 4.28044 147.089 4.28044H145.464Z" fill="#131313"/>
<path d="M160.488 15.6515C158.863 15.6515 157.509 15.3166 156.426 14.6467C155.343 13.9625 154.616 13.0432 154.245 11.8887L157.901 9.77209C158.4 11.0406 159.298 11.6749 160.595 11.6749C161.564 11.6749 162.049 11.4183 162.049 10.9052C162.049 10.7627 162.013 10.6344 161.942 10.5204C161.871 10.4064 161.735 10.3066 161.536 10.2211C161.336 10.1355 161.158 10.0714 161.001 10.0286C160.859 9.97163 160.602 9.89324 160.231 9.79346C159.861 9.69369 159.583 9.6153 159.398 9.55829C156.419 8.66034 154.929 7.05685 154.929 4.74784C154.929 3.37953 155.421 2.2464 156.404 1.34845C157.402 0.450501 158.706 0.00152588 160.317 0.00152588C161.586 0.00152588 162.719 0.300843 163.716 0.899476C164.728 1.49811 165.47 2.36043 165.94 3.48643L162.391 5.56027C161.977 4.50553 161.293 3.97816 160.338 3.97816C159.968 3.97816 159.683 4.05656 159.483 4.21334C159.298 4.35587 159.205 4.54117 159.205 4.76922C159.205 5.08279 159.369 5.32509 159.697 5.49613C160.039 5.66717 160.688 5.88809 161.643 6.1589C162.355 6.3727 162.94 6.57937 163.396 6.77892C163.852 6.96421 164.329 7.23502 164.828 7.59135C165.327 7.93342 165.698 8.3824 165.94 8.93827C166.196 9.4799 166.325 10.1213 166.325 10.8625C166.325 12.3875 165.797 13.5706 164.743 14.4115C163.702 15.2382 162.284 15.6515 160.488 15.6515Z" fill="#131313"/>
</svg>
